<svg width="750" height="500" viewBox="0 0 750 500" fill="none" xmlns="http://www.w3.org/2000/svg">
<path d="M335.23 97.19H455.69C455.69 97.19 444.57 44 394.55 44C350.06 44 335.23 97.19 335.23 97.19Z" fill="#014FC1"/>
<path d="M396.75 0H394.17V43.98H396.75V0Z" fill="#014FC1"/>
<path d="M663.67 439.83C663.67 439.97 534.42 440.09 375.01 440.09C215.6 440.09 86.33 440 86.33 439.83C86.33 439.66 215.56 439.57 375.01 439.57C534.46 439.57 663.67 439.68 663.67 439.83Z" fill="#263238"/>
<path d="M118.29 377.2C119.981 377.322 121.63 377.783 123.138 378.556C124.646 379.33 125.984 380.399 127.07 381.7C129.23 384.318 130.759 387.397 131.54 390.7C133.23 397.02 132.19 404.49 130.39 410.78C123.55 408.33 119.32 401.03 117.39 397.19C114.39 391.13 112.6 378.33 118.26 377.19" fill="#FFD767"/>
<path d="M140.24 418.45C139.213 416.857 138.626 415.021 138.538 413.127C138.45 411.234 138.865 409.351 139.74 407.67C140.643 406.005 141.868 404.536 143.345 403.35C144.821 402.163 146.519 401.283 148.34 400.76C150.01 400.24 151.95 400.03 153.4 401C154.054 401.494 154.563 402.155 154.874 402.913C155.185 403.671 155.288 404.499 155.17 405.31C154.908 406.935 154.217 408.46 153.17 409.73C149.84 414.24 145.8 417.99 140.17 418.45" fill="#FFD767"/>
<path d="M141 439.58C140.852 439.155 140.748 438.716 140.69 438.27C140.51 437.33 140.27 436.12 139.98 434.67C139.082 430.7 138.833 426.61 139.24 422.56C139.712 418.49 141.262 414.62 143.73 411.35C144.484 410.372 145.354 409.489 146.32 408.72C146.583 408.512 146.856 408.318 147.14 408.14C147.23 408.065 147.331 408.004 147.44 407.96C146.175 409.041 145.02 410.243 143.99 411.55C141.652 414.823 140.179 418.635 139.71 422.63C139.07 427.29 139.86 431.56 140.32 434.63C140.56 436.16 140.76 437.4 140.87 438.26C140.949 438.696 140.992 439.137 141 439.58Z" fill="#263238"/>
<path d="M120.49 386.83C120.604 386.988 120.698 387.159 120.77 387.34C120.95 387.74 121.19 388.24 121.47 388.87C122.08 390.2 122.93 392.13 123.96 394.52C126.02 399.31 128.78 405.97 131.66 413.39C134.54 420.81 136.99 427.58 138.66 432.51C139.52 434.97 140.19 436.97 140.66 438.36C140.87 439.02 141.03 439.55 141.16 439.96C141.231 440.144 141.282 440.335 141.31 440.53C141.209 440.36 141.128 440.179 141.07 439.99C140.92 439.59 140.73 439.07 140.48 438.42L138.37 432.62C136.58 427.73 134.08 420.97 131.21 413.56C128.34 406.15 125.62 399.47 123.64 394.65C122.64 392.28 121.87 390.35 121.3 388.94C121.04 388.3 120.83 387.79 120.67 387.38C120.595 387.202 120.535 387.018 120.49 386.83Z" fill="#263238"/>
<path d="M132.87 425.6C130.812 422.174 127.969 419.287 124.575 417.178C121.18 415.069 117.333 413.798 113.35 413.47C111.35 413.33 108.89 413.67 107.99 415.47C107.09 417.27 108.29 419.47 109.67 420.93C112.602 423.997 116.377 426.128 120.518 427.053C124.659 427.979 128.981 427.657 132.94 426.13" fill="#FFD767"/>
<path d="M116.43 418.89C116.854 418.869 117.279 418.886 117.7 418.94C118.193 418.967 118.684 419.024 119.17 419.11C119.74 419.22 120.41 419.28 121.11 419.48C121.892 419.646 122.664 419.859 123.42 420.12C124.296 420.402 125.154 420.736 125.99 421.12C127.912 421.981 129.731 423.058 131.41 424.33C133.07 425.632 134.573 427.122 135.89 428.77C136.459 429.487 136.983 430.239 137.46 431.02C137.891 431.695 138.285 432.392 138.64 433.11C138.94 433.695 139.208 434.296 139.44 434.91C139.64 435.365 139.811 435.833 139.95 436.31C140.098 436.709 140.209 437.121 140.28 437.54C140.17 437.54 139.69 435.82 138.34 433.26C137.972 432.573 137.568 431.905 137.13 431.26C136.643 430.503 136.115 429.772 135.55 429.07C132.934 425.838 129.599 423.263 125.81 421.55C124.94 421.17 124.11 420.81 123.3 420.55C122.556 420.279 121.799 420.049 121.03 419.86C118.23 419.09 116.42 419 116.43 418.89Z" fill="#263238"/>
<path d="M570.36 105.48C567.42 106.15 565.99 109.54 565.71 112.54C565.43 115.54 565.81 118.72 564.55 121.46C563.13 124.54 559.74 126.82 559.63 130.21C559.56 132.28 560.79 134.21 560.73 136.3C560.63 139.7 557.17 142.3 556.98 145.66C556.85 148.11 558.48 150.45 558.09 152.87C557.79 154.75 556.32 156.23 555.7 158.03C554.47 161.63 556.94 165.58 560.15 167.6C561.948 168.731 563.972 169.455 566.079 169.722C568.186 169.99 570.327 169.794 572.351 169.148C574.374 168.502 576.233 167.422 577.796 165.984C579.359 164.546 580.589 162.783 581.4 160.82C583.18 156.5 582.79 151.63 582.4 146.98C581.2 132.473 580.307 117.947 579.72 103.4" fill="#263238"/>
<path d="M561.82 156.66C562.425 156.284 562.897 155.728 563.17 155.07C563.459 154.287 563.575 153.452 563.51 152.62C563.401 151.517 563.155 150.433 562.78 149.39C562.302 148.08 562.124 146.678 562.26 145.29C562.51 143.73 563.63 142.45 564.64 141.19C565.184 140.573 565.638 139.883 565.99 139.14C566.342 138.388 566.4 137.532 566.15 136.74C565.63 135.11 564.03 133.91 563.3 132.02C562.957 131.084 562.901 130.068 563.14 129.1C563.367 128.193 563.703 127.317 564.14 126.49C564.984 125.002 565.655 123.421 566.14 121.78C566.84 118.61 566.51 115.58 566.99 113.09C567.256 111.096 568.141 109.235 569.52 107.77C569.91 107.375 570.355 107.039 570.84 106.77C571.007 106.683 571.186 106.619 571.37 106.58C570.743 106.925 570.168 107.356 569.66 107.86C568.383 109.34 567.578 111.169 567.35 113.11C567.175 114.436 567.081 115.772 567.07 117.11C567.067 118.685 566.913 120.255 566.61 121.8C566.133 123.479 565.462 125.097 564.61 126.62C563.86 128.19 563.17 130.03 563.83 131.75C564.49 133.47 566.08 134.66 566.69 136.5C566.965 137.409 566.898 138.388 566.5 139.25C566.11 140.068 565.605 140.826 565 141.5C564 142.76 562.91 143.96 562.67 145.36C562.53 146.688 562.687 148.03 563.13 149.29C563.487 150.365 563.709 151.48 563.79 152.61C563.839 153.48 563.685 154.35 563.34 155.15C563.125 155.652 562.78 156.087 562.34 156.41C562.184 156.525 562.007 156.609 561.82 156.66Z" fill="#014FC1"/>
<path d="M554 180.37L545 206.37L507.36 208.37L501.08 222.37L540.38 226.37C542.237 227.132 544.229 227.51 546.236 227.481C548.243 227.452 550.223 227.016 552.057 226.2C553.891 225.384 555.54 224.205 556.905 222.734C558.27 221.262 559.323 219.53 560 217.64L570.49 188.36L554 180.37Z" fill="#D09983"/>
<path d="M631.81 425.7C631.81 425.7 604.23 338.08 603.64 335.24C603.11 332.66 613.64 269.61 614.98 253.24L577.71 254.63V255L561.87 255.88L576.05 435H593.2L591.5 375.55C602.08 403.94 617.24 432.88 617.24 432.88L631.81 425.7Z" fill="#D09983"/>
<path d="M592.2 396.88C592.2 396.34 591.99 376.96 591.99 376.96C591.78 378.12 585.42 360.14 585.57 359.05C585.65 358.48 592.2 396.88 592.2 396.88Z" fill="#A36957"/>
<path d="M584.85 350.53C584.762 350.886 584.725 351.253 584.74 351.62C584.685 352.619 584.685 353.621 584.74 354.62C584.74 355.25 584.83 355.93 584.91 356.67C584.99 357.41 585.1 358.19 585.27 359C585.626 360.769 586.097 362.512 586.68 364.22C587.92 367.85 589.3 371.02 590.27 373.32C590.73 374.32 591.13 375.27 591.47 376.03C591.593 376.383 591.761 376.72 591.97 377.03C591.917 376.684 591.816 376.348 591.67 376.03C591.44 375.37 591.09 374.42 590.67 373.25C589.79 370.91 588.47 367.71 587.24 364.12C586.658 362.437 586.181 360.721 585.81 358.98C585.63 358.18 585.51 357.41 585.4 356.69C585.29 355.97 585.21 355.29 585.16 354.69C585.04 353.45 584.99 352.45 584.96 351.75C584.979 351.34 584.942 350.93 584.85 350.53Z" fill="#A36957"/>
<path d="M575.73 435.91V434.3L593.3 433.53L593.35 440.18L592.27 440.25C587.44 440.53 567.72 441.35 564.5 440.38C560.89 439.3 575.73 435.91 575.73 435.91Z" fill="#014FC1"/>
<path d="M593.58 439.78C593.48 439.786 593.38 439.786 593.28 439.78L592.42 439.84L589.24 439.98C586.56 440.09 582.85 440.19 578.76 440.21C574.67 440.23 570.95 440.16 568.26 440.08L565.09 439.95H564.22H563.92C564.02 439.942 564.12 439.942 564.22 439.95H565.09L568.27 440.01C570.95 440.01 574.66 440.09 578.75 440.07C582.84 440.05 586.56 439.98 589.24 439.91L592.42 439.83H593.58V439.78Z" fill="#263238"/>
<path d="M570 440.34C569.854 439.817 569.653 439.311 569.4 438.83C569.084 438.387 568.718 437.981 568.31 437.62C568.856 437.815 569.309 438.208 569.58 438.72C569.911 439.192 570.06 439.767 570 440.34Z" fill="#263238"/>
<path d="M575.18 437.71C575.18 437.71 574.89 437.44 574.63 437.04C574.37 436.64 574.21 436.29 574.26 436.26C574.31 436.23 574.55 436.52 574.81 436.92C575.07 437.32 575.23 437.68 575.18 437.71Z" fill="#263238"/>
<path d="M576.6 437C576.6 437.05 576.28 436.86 575.98 436.59C575.68 436.32 575.46 436.07 575.5 436.03C575.54 435.99 575.82 436.17 576.12 436.44C576.42 436.71 576.64 436.91 576.6 437Z" fill="#263238"/>
<path d="M577.49 435.3C577.196 435.408 576.882 435.449 576.57 435.42C576.264 435.46 575.952 435.43 575.66 435.33C575.951 435.223 576.262 435.182 576.57 435.21C576.88 435.168 577.195 435.198 577.49 435.3Z" fill="#263238"/>
<path d="M577.79 434.14C577.492 434.333 577.145 434.437 576.79 434.44C576.45 434.485 576.105 434.436 575.79 434.3C576.12 434.244 576.455 434.217 576.79 434.22C577.12 434.161 577.455 434.134 577.79 434.14Z" fill="#263238"/>
<path d="M574.59 436.18C574.217 436.25 573.833 436.25 573.46 436.18C573.056 436.131 572.658 436.044 572.27 435.92C572.03 435.853 571.798 435.759 571.58 435.64C571.447 435.561 571.347 435.437 571.3 435.29C571.282 435.206 571.288 435.119 571.318 435.04C571.348 434.96 571.401 434.89 571.47 434.84C571.747 434.706 572.05 434.635 572.358 434.632C572.666 434.629 572.97 434.695 573.249 434.824C573.529 434.953 573.776 435.143 573.973 435.379C574.17 435.615 574.313 435.892 574.39 436.19C574.41 436.289 574.41 436.391 574.39 436.49C574.277 436.128 574.101 435.79 573.87 435.49C573.604 435.19 573.257 434.975 572.87 434.87C572.427 434.727 571.946 434.763 571.53 434.97C571.36 435.1 571.43 435.31 571.62 435.43C571.824 435.54 572.039 435.631 572.26 435.7C572.636 435.823 573.02 435.92 573.41 435.99C574.16 436.15 574.59 436.15 574.59 436.18Z" fill="#263238"/>
<path d="M574.3 436.24C574.154 436.008 574.104 435.728 574.16 435.46C574.197 435.166 574.303 434.885 574.47 434.64C574.564 434.473 574.698 434.332 574.861 434.231C575.023 434.13 575.209 434.071 575.4 434.06C575.513 434.086 575.612 434.155 575.677 434.251C575.742 434.348 575.768 434.465 575.75 434.58C575.725 434.759 575.66 434.93 575.56 435.08C575.408 435.328 575.231 435.559 575.03 435.77C574.856 435.969 574.637 436.124 574.39 436.22C574.39 436.22 574.61 436.02 574.92 435.66C575.1 435.454 575.257 435.229 575.39 434.99C575.54 434.75 575.65 434.32 575.39 434.27C575.13 434.22 574.83 434.53 574.66 434.75C574.501 434.967 574.392 435.216 574.34 435.48C574.299 435.731 574.286 435.986 574.3 436.24Z" fill="#263238"/>
<path d="M593.21 435C593.21 435 592.71 435 591.92 435.05C590.891 435.173 589.918 435.582 589.11 436.231C588.302 436.88 587.692 437.742 587.35 438.72C587.09 439.47 587.07 439.98 587.03 439.97C586.99 439.96 587.03 439.84 587.03 439.62C587.056 439.298 587.116 438.979 587.21 438.67C587.528 437.646 588.14 436.739 588.97 436.06C589.811 435.393 590.831 434.993 591.9 434.91C592.232 434.87 592.568 434.87 592.9 434.91C593.007 434.926 593.111 434.957 593.21 435Z" fill="#263238"/>
<path d="M584.8 438.38C583.961 438.575 583.101 438.659 582.24 438.63C581.384 438.673 580.526 438.599 579.69 438.41C579.69 438.35 580.83 438.41 582.24 438.41C583.65 438.41 584.79 438.32 584.8 438.38Z" fill="#263238"/>
<path d="M588.22 438.35C588.22 438.35 588.13 438.59 588.01 438.85C587.89 439.11 587.83 439.35 587.77 439.34C587.71 439.33 587.68 439.07 587.82 438.76C587.96 438.45 588.18 438.3 588.22 438.35Z" fill="#263238"/>
<path d="M589.51 436.74C589.51 436.74 589.44 436.96 589.26 437.14C589.08 437.32 588.9 437.44 588.85 437.4C588.8 437.36 588.92 437.18 589.1 436.99C589.28 436.8 589.46 436.69 589.51 436.74Z" fill="#263238"/>
<path d="M591.35 436C591.35 436.06 591.11 436.06 590.85 436.15C590.59 436.24 590.41 436.38 590.36 436.34C590.31 436.3 590.46 436.06 590.78 435.95C591.1 435.84 591.37 435.94 591.35 436Z" fill="#263238"/>
<path d="M592.66 435.64C592.66 435.7 592.59 435.79 592.44 435.84C592.29 435.89 592.16 435.9 592.14 435.84C592.12 435.78 592.22 435.69 592.36 435.64C592.5 435.59 592.64 435.59 592.66 435.64Z" fill="#263238"/>
<path d="M616.89 434.36L616.23 432.89L631.94 425L634.71 431L633.71 431.51C629.42 433.74 611.77 442.56 608.43 443C604.74 443.53 616.89 434.36 616.89 434.36Z" fill="#014FC1"/>
<path d="M634.77 430.57L634.51 430.73L633.74 431.13L630.9 432.57C628.5 433.76 625.16 435.37 621.43 437.07C617.7 438.77 614.28 440.22 611.8 441.25L608.85 442.44L608.05 442.75C607.958 442.793 607.86 442.823 607.76 442.84L608.03 442.71L608.82 442.36L611.74 441.11C614.21 440.05 617.61 438.57 621.34 436.87C625.07 435.17 628.42 433.59 630.84 432.43L633.7 431.06L634.49 430.69L634.77 430.57Z" fill="#263238"/>
<path d="M613.52 440.74C613.173 440.318 612.781 439.936 612.35 439.6C611.881 439.322 611.381 439.101 610.86 438.94C611.434 438.932 611.997 439.101 612.473 439.423C612.948 439.745 613.314 440.204 613.52 440.74Z" fill="#263238"/>
<path d="M617.13 436.22C617.13 436.22 616.75 436.1 616.35 435.84C615.95 435.58 615.66 435.33 615.69 435.28C615.72 435.23 616.07 435.4 616.47 435.66C616.87 435.92 617.16 436.17 617.13 436.22Z" fill="#263238"/>
<path d="M618.11 435C618.11 435.05 617.77 435 617.38 434.88C616.99 434.76 616.7 434.61 616.71 434.55C616.963 434.526 617.218 434.568 617.45 434.67C617.83 434.76 618.13 434.9 618.11 435Z" fill="#263238"/>
<path d="M618.25 433.08C618.25 433.14 617.92 433.35 617.46 433.57C617.195 433.729 616.898 433.828 616.59 433.86C616.59 433.8 616.92 433.59 617.37 433.37C617.639 433.211 617.939 433.113 618.25 433.08Z" fill="#263238"/>
<path d="M618.05 431.9C618.05 431.9 617.76 432.3 617.24 432.59C616.945 432.79 616.596 432.895 616.24 432.89C616.527 432.697 616.831 432.533 617.15 432.4C617.64 432.13 618 431.85 618.05 431.9Z" fill="#263238"/>
<path d="M616 435.08C615.695 435.289 615.357 435.445 615 435.54C614.607 435.655 614.206 435.738 613.8 435.79C613.554 435.821 613.306 435.821 613.06 435.79C612.906 435.778 612.762 435.707 612.66 435.59C612.614 435.519 612.589 435.435 612.589 435.35C612.589 435.265 612.614 435.181 612.66 435.11C612.964 434.742 613.387 434.49 613.855 434.399C614.324 434.308 614.81 434.383 615.23 434.61C615.478 434.74 615.696 434.921 615.87 435.14C615.99 435.3 616.04 435.4 616.03 435.41C615.784 435.135 615.489 434.908 615.16 434.74C614.808 434.575 614.415 434.516 614.03 434.57C613.801 434.594 613.579 434.663 613.376 434.772C613.174 434.882 612.995 435.031 612.85 435.21C612.74 435.4 612.85 435.56 613.12 435.59C613.35 435.61 613.58 435.61 613.81 435.59C614.208 435.55 614.603 435.48 614.99 435.38C615.56 435.22 616 435.05 616 435.08Z" fill="#263238"/>
<path d="M615.72 435.25C615.497 435.092 615.34 434.857 615.28 434.59C615.192 434.309 615.172 434.011 615.22 433.72C615.237 433.528 615.303 433.344 615.412 433.185C615.52 433.025 615.668 432.896 615.84 432.81C616.09 432.73 616.67 433.24 616.71 433.43C616.75 433.62 616.42 433.52 616.4 433.68C616.368 433.964 616.301 434.243 616.2 434.51C616.127 434.767 615.989 435.002 615.8 435.19C615.8 435.19 615.92 434.92 616.06 434.47C616.132 434.205 616.182 433.934 616.21 433.66C616.21 433.38 616.21 432.95 615.89 433.02C615.57 433.09 615.48 433.48 615.41 433.76C615.349 434.02 615.349 434.29 615.41 434.55C615.493 434.792 615.596 435.026 615.72 435.25Z" fill="#263238"/>
<path d="M632.47 426.36C632.47 426.36 631.99 426.53 631.31 426.94C630.421 427.472 629.697 428.24 629.22 429.16C628.757 430.088 628.56 431.126 628.65 432.16C628.71 432.96 628.9 433.42 628.86 433.44C628.795 433.341 628.745 433.233 628.71 433.12C628.611 432.814 628.541 432.499 628.5 432.18C628.357 431.115 628.541 430.032 629.029 429.074C629.517 428.117 630.284 427.33 631.23 426.82C631.513 426.663 631.811 426.536 632.12 426.44C632.232 426.396 632.35 426.369 632.47 426.36Z" fill="#263238"/>
<path d="M626.18 432.9C624.77 433.88 623.195 434.598 621.53 435.02C621.53 434.96 622.58 434.56 623.86 434.02C625.14 433.48 626.15 432.85 626.18 432.9Z" fill="#263238"/>
<path d="M629.29 431.47C629.34 431.47 629.29 431.72 629.29 432.01C629.29 432.3 629.29 432.54 629.29 432.56C629.29 432.58 629.09 432.34 629.09 432.01C629.09 431.68 629.24 431.44 629.29 431.47Z" fill="#263238"/>
<path d="M629.8 429.47C629.85 429.47 629.8 429.7 629.74 429.94C629.68 430.18 629.53 430.36 629.48 430.34C629.43 430.32 629.48 430.11 629.54 429.87C629.6 429.63 629.74 429.45 629.8 429.47Z" fill="#263238"/>
<path d="M631.18 428C631.18 428.06 630.98 428.15 630.78 428.34C630.58 428.53 630.47 428.73 630.42 428.71C630.37 428.69 630.42 428.41 630.64 428.18C630.86 427.95 631.17 428 631.18 428Z" fill="#263238"/>
<path d="M632.23 427.18C632.23 427.18 632.23 427.34 632.11 427.45C631.99 427.56 631.88 427.62 631.84 427.58C631.8 427.54 631.84 427.42 631.96 427.31C632.08 427.2 632.19 427.14 632.23 427.18Z" fill="#263238"/>
<path d="M612.56 223.64L609.64 187.94L624.64 188.21C624.64 188.21 625.33 182.94 623.12 171.4C621.76 164.32 617.05 159.98 611.76 157.4V157.3L611.3 157.18C606.945 155.225 602.295 154.011 597.54 153.59L579.09 153.8C579.09 153.8 565 152 557.23 162.09C554.23 165.96 544.92 192.45 544.92 192.45L567.07 203.11L565 188.42C565 188.42 565.42 199.07 566.78 202.42C567.53 204.3 569.78 210.14 569.78 210.14L569.49 227.76L612.56 223.64Z" fill="#014FC1"/>
<path d="M602.39 182.76L599.65 194.42H625.48L623.78 174.86L602.39 182.76Z" fill="#014FC1"/>
<path d="M625.48 194.42C624.351 194.212 623.208 194.098 622.06 194.08C619.94 193.96 617.06 193.85 613.78 193.87C610.5 193.89 607.61 194.03 605.49 194.19C604.343 194.23 603.202 194.37 602.08 194.61C603.225 194.701 604.375 194.701 605.52 194.61C607.63 194.54 610.52 194.46 613.78 194.45C617.04 194.44 619.93 194.45 622.05 194.5C623.194 194.564 624.341 194.537 625.48 194.42Z" fill="#263238"/>
<path d="M601.27 174.77C601.147 175.765 601.12 176.77 601.19 177.77C601.19 179.6 601.27 182.12 601.38 184.91C601.49 187.7 601.62 190.23 601.74 192.05C601.745 193.058 601.852 194.063 602.06 195.05C602.183 194.055 602.21 193.05 602.14 192.05C602.14 190.22 602.06 187.69 601.95 184.9C601.84 182.11 601.71 179.59 601.59 177.76C601.586 176.755 601.479 175.753 601.27 174.77Z" fill="#263238"/>
<g opacity="0.3">
<path d="M577.77 184.87C577.77 184.87 583.51 227.44 599.65 226.31C599.65 226.31 606.92 226.23 609.25 221.4V219.5L577.77 184.87Z" fill="#BC5656"/>
</g>
<g opacity="0.3">
<path d="M601.27 177.28L598.18 198.15L600.18 201.81L603.48 194.65L602.08 194.61L601.27 177.28Z" fill="#BC5656"/>
</g>
<path d="M569.69 210.16C569.498 209.848 569.35 209.512 569.25 209.16C569 208.51 568.67 207.56 568.25 206.37C567.249 203.269 566.424 200.114 565.78 196.92C565.138 193.724 564.73 190.485 564.56 187.23C564.5 185.98 564.48 184.97 564.5 184.23C564.474 183.868 564.498 183.505 564.57 183.15C564.65 183.15 564.71 184.69 564.92 187.15C565.202 190.376 565.659 193.584 566.29 196.76C567.03 200.48 567.92 203.81 568.6 206.2C568.92 207.31 569.19 208.26 569.41 209.04C569.547 209.401 569.641 209.777 569.69 210.16Z" fill="#263238"/>
<path d="M576.21 222.39C576.07 222.39 575.67 221.52 575.32 220.39C575.019 219.697 574.885 218.944 574.93 218.19C575.371 218.801 575.675 219.5 575.82 220.24C576.107 220.919 576.24 221.653 576.21 222.39Z" fill="#263238"/>
<path d="M578.44 222.23C577.684 220.224 577.652 218.017 578.35 215.99C578.428 217.029 578.428 218.072 578.35 219.11C578.459 220.146 578.489 221.189 578.44 222.23Z" fill="#263238"/>
<path d="M567.52 203.6C567.45 203.72 562.3 201.28 556.01 198.14C549.72 195 544.67 192.34 544.73 192.21C544.79 192.08 549.95 194.53 556.24 197.67C562.53 200.81 567.58 203.47 567.52 203.6Z" fill="#263238"/>
<path d="M576.6 157.25C576.71 152.19 576.74 146.87 576.74 146.87C576.74 146.87 570.25 145.62 569.12 137.08C568.04 128.94 571.06 109.83 571.06 109.83C580.54 106.25 590.39 109.5 596.88 117.18L595.27 158.25C595.08 163.02 590.83 166.66 585.73 166.42C580.57 166.17 576.49 162.07 576.6 157.25Z" fill="#D09983"/>
<path d="M570.56 125.1C570.551 125.38 570.65 125.653 570.836 125.863C571.022 126.073 571.281 126.205 571.56 126.23C571.702 126.244 571.845 126.228 571.981 126.185C572.117 126.141 572.242 126.071 572.35 125.977C572.458 125.884 572.545 125.769 572.607 125.641C572.669 125.512 572.704 125.372 572.71 125.23C572.719 124.951 572.62 124.679 572.434 124.47C572.247 124.262 571.988 124.133 571.71 124.11C571.568 124.088 571.422 124.098 571.284 124.138C571.145 124.177 571.017 124.247 570.908 124.341C570.798 124.435 570.711 124.551 570.651 124.682C570.591 124.813 570.56 124.956 570.56 125.1Z" fill="#263238"/>
<path d="M570.16 123.67C570.29 123.81 571.16 123.22 572.31 123.26C573.46 123.3 574.31 123.9 574.45 123.76C574.59 123.62 574.39 123.44 574.02 123.15C573.519 122.787 572.918 122.588 572.3 122.58C571.691 122.557 571.091 122.732 570.59 123.08C570.22 123.35 570.09 123.6 570.16 123.67Z" fill="#263238"/>
<path d="M582.47 125.84C582.459 126.121 582.557 126.396 582.743 126.606C582.929 126.817 583.19 126.947 583.47 126.97C583.613 126.992 583.76 126.982 583.899 126.942C584.038 126.901 584.167 126.831 584.276 126.736C584.386 126.641 584.473 126.523 584.532 126.391C584.592 126.259 584.622 126.115 584.62 125.97C584.631 125.69 584.533 125.417 584.346 125.208C584.16 124.999 583.899 124.871 583.62 124.85C583.478 124.829 583.332 124.838 583.194 124.878C583.055 124.918 582.927 124.987 582.818 125.081C582.708 125.175 582.621 125.292 582.561 125.423C582.501 125.554 582.47 125.696 582.47 125.84Z" fill="#263238"/>
<path d="M582.39 124.41C582.52 124.56 583.39 123.97 584.54 124C585.69 124.03 586.54 124.64 586.69 124.5C586.84 124.36 586.62 124.18 586.25 123.9C585.757 123.528 585.158 123.324 584.54 123.32C583.928 123.302 583.327 123.477 582.82 123.82C582.46 124.09 582.33 124.34 582.39 124.41Z" fill="#263238"/>
<path d="M577.91 133C577.296 132.789 576.658 132.658 576.01 132.61C575.71 132.61 575.43 132.5 575.39 132.3C575.366 131.988 575.443 131.676 575.61 131.41L576.55 129.16C577.425 127.248 578.144 125.268 578.7 123.24C577.676 125.078 576.8 126.994 576.08 128.97C575.77 129.76 575.46 130.52 575.17 131.24C574.976 131.597 574.912 132.011 574.99 132.41C575.029 132.519 575.093 132.617 575.176 132.696C575.26 132.776 575.36 132.836 575.47 132.87C575.636 132.918 575.807 132.945 575.98 132.95C576.619 133.049 577.267 133.065 577.91 133Z" fill="#263238"/>
<path d="M576.74 146.87C580.741 147.03 584.708 146.078 588.2 144.12C588.2 144.12 585.29 149.89 576.8 148.88L576.74 146.87Z" fill="#A36957"/>
<path d="M586.15 121C585.91 121.37 585.01 121.21 584.01 121C583.01 120.79 582.13 120.62 582.01 120.19C581.89 119.76 582.94 119.19 584.28 119.46C585.62 119.73 586.39 120.68 586.15 121Z" fill="#263238"/>
<path d="M574.48 119.3C574.39 119.73 573.43 119.89 572.33 119.94C571.23 119.99 570.26 119.94 570.13 119.5C570 119.06 570.93 118.44 572.26 118.38C573.59 118.32 574.57 118.89 574.48 119.3Z" fill="#263238"/>
<path d="M577.93 135.81C577.804 135.78 577.671 135.794 577.553 135.848C577.435 135.902 577.339 135.995 577.28 136.11C577.223 136.212 577.194 136.327 577.195 136.444C577.196 136.561 577.228 136.675 577.287 136.776C577.346 136.877 577.431 136.96 577.532 137.018C577.633 137.076 577.748 137.107 577.865 137.107C577.982 137.107 578.097 137.076 578.198 137.018C578.299 136.96 578.384 136.877 578.443 136.776C578.502 136.675 578.534 136.561 578.535 136.444C578.536 136.327 578.507 136.212 578.45 136.11C578.378 135.976 578.263 135.87 578.123 135.81C577.983 135.75 577.827 135.74 577.68 135.78" fill="#A36957"/>
<path d="M578.2 135.93C578.2 135.88 578.01 135.59 577.5 135.7C577.347 135.74 577.208 135.819 577.096 135.929C576.983 136.04 576.902 136.178 576.86 136.33C576.806 136.521 576.811 136.725 576.873 136.913C576.936 137.102 577.053 137.268 577.21 137.39C577.376 137.504 577.573 137.565 577.775 137.565C577.977 137.565 578.174 137.504 578.34 137.39C578.473 137.3 578.577 137.175 578.641 137.028C578.705 136.881 578.725 136.718 578.7 136.56C578.6 136.03 578.21 135.95 578.19 136.02C578.17 136.09 578.33 136.27 578.3 136.58C578.293 136.657 578.268 136.73 578.226 136.795C578.184 136.859 578.127 136.913 578.06 136.95C577.982 136.995 577.894 137.018 577.805 137.018C577.715 137.018 577.627 136.995 577.55 136.95C577.48 136.891 577.427 136.815 577.395 136.729C577.364 136.643 577.355 136.55 577.37 136.46C577.381 136.381 577.412 136.306 577.459 136.242C577.506 136.177 577.568 136.125 577.64 136.09C577.92 135.92 578.17 136 578.2 135.93Z" fill="#263238"/>
<path d="M593 127.21C592 129.55 589.52 131.36 589.86 133.89C590.08 135.52 591.13 137.04 590.93 138.68C590.67 140.68 588.54 142.16 588.23 144.21C587.86 146.72 590.31 148.67 591.28 151.01C592.71 154.43 590.89 158.27 590.84 162.01C590.899 164.849 591.985 167.571 593.897 169.671C595.81 171.771 598.418 173.106 601.24 173.43C603.52 173.62 606.09 172.93 607.24 170.97C608.24 169.35 608.02 167.29 608.6 165.5C609.48 162.82 612.03 160.86 612.6 158.1C613.6 153.1 607.5 148.9 607.9 143.78C608.07 141.59 609.42 139.69 609.99 137.57C610.353 136.177 610.381 134.717 610.072 133.311C609.762 131.905 609.124 130.592 608.21 129.48C606.7 127.69 604.52 126.48 603.21 124.56C601.76 122.35 601.71 119.56 601.21 116.95C600.539 113.777 599.074 110.827 596.953 108.374C594.831 105.922 592.123 104.047 589.08 102.925C586.038 101.804 582.761 101.472 579.555 101.96C576.349 102.449 573.32 103.742 570.75 105.72C570.75 105.72 569.3 112.31 576.07 113.42C582.84 114.53 585.97 113.25 586.73 115.96C586.551 117.076 586.639 118.219 586.986 119.295C587.334 120.371 587.932 121.349 588.73 122.15C591.49 125.13 594.12 124.49 593 127.21Z" fill="#263238"/>
<path d="M603.75 172.92C603.542 172.927 603.333 172.907 603.13 172.86C602.544 172.756 601.968 172.599 601.41 172.39C599.345 171.598 597.534 170.261 596.17 168.52C595.214 167.319 594.463 165.967 593.95 164.52C593.366 162.872 593.058 161.139 593.04 159.39C593.019 157.463 593.262 155.542 593.76 153.68C594.033 152.697 594.367 151.732 594.76 150.79C595.173 149.853 595.537 148.895 595.85 147.92C596.125 146.959 596.125 145.941 595.85 144.98C595.557 144.034 595.179 143.117 594.72 142.24C594.256 141.37 593.865 140.464 593.55 139.53C593.242 138.606 593.17 137.619 593.34 136.66C593.74 134.78 594.88 133.38 595.56 131.95C596.208 130.626 596.517 129.163 596.46 127.69C596.369 125.535 595.587 123.467 594.23 121.79C593.704 121.203 593.14 120.652 592.54 120.14C593.241 120.534 593.868 121.049 594.39 121.66C595.847 123.334 596.705 125.445 596.83 127.66C596.913 129.197 596.61 130.73 595.95 132.12C595.26 133.6 594.15 135.01 593.81 136.73C593.47 138.45 594.28 140.26 595.17 142C595.655 142.902 596.051 143.85 596.35 144.83C596.645 145.876 596.645 146.984 596.35 148.03C596.017 149.039 595.633 150.03 595.2 151C594.807 151.921 594.473 152.866 594.2 153.83C593.704 155.645 593.458 157.519 593.47 159.4C593.439 162.604 594.473 165.728 596.41 168.28C597.705 169.999 599.43 171.348 601.41 172.19C602.9 172.77 603.76 172.86 603.75 172.92Z" fill="#014FC1"/>
<path d="M602.75 122.46C602.263 122.586 601.763 122.66 601.26 122.68C599.888 122.827 598.502 122.79 597.14 122.57C596.107 122.417 595.116 122.06 594.223 121.519C593.33 120.978 592.554 120.264 591.94 119.42C591.368 118.352 590.912 117.225 590.58 116.06C590.153 114.896 589.351 113.907 588.3 113.25C586.11 111.86 583.54 111.69 581.3 111.42C579.234 111.317 577.228 110.691 575.47 109.6C574.293 108.82 573.442 107.635 573.08 106.27C572.993 105.9 572.969 105.518 573.01 105.14C573.01 104.88 573.07 104.75 573.09 104.75C573.102 105.245 573.166 105.738 573.28 106.22C573.694 107.496 574.544 108.587 575.68 109.3C577.406 110.307 579.354 110.87 581.35 110.94C583.59 111.2 586.25 111.33 588.59 112.81C589.735 113.529 590.608 114.609 591.07 115.88C591.383 117.016 591.816 118.115 592.36 119.16C593.525 120.758 595.27 121.835 597.22 122.16C598.538 122.405 599.881 122.496 601.22 122.43C601.73 122.401 602.242 122.411 602.75 122.46Z" fill="#014FC1"/>
<path d="M600.27 114.32C599.893 114.446 599.497 114.503 599.1 114.49C597.236 114.502 595.441 113.784 594.1 112.49C593.488 111.876 592.966 111.179 592.55 110.42C591.65 108.9 590.78 107.03 588.91 106.25C587.109 105.645 585.189 105.477 583.31 105.76C581.725 105.983 580.116 105.983 578.53 105.76C577.427 105.607 576.388 105.15 575.53 104.44C575.308 104.246 575.113 104.024 574.95 103.78C574.83 103.606 574.78 103.516 574.8 103.51C574.8 103.51 575.08 103.83 575.66 104.28C576.515 104.888 577.508 105.273 578.55 105.4C580.107 105.575 581.68 105.548 583.23 105.32C585.191 104.999 587.202 105.171 589.08 105.82C590.046 106.254 590.873 106.946 591.47 107.82C591.997 108.599 592.481 109.407 592.92 110.24C593.314 110.967 593.802 111.639 594.37 112.24C594.872 112.748 595.449 113.176 596.08 113.51C597.01 113.995 598.033 114.278 599.08 114.34C599.85 114.33 600.26 114.27 600.27 114.32Z" fill="#014FC1"/>
<path d="M606.73 170.76C606.68 170.76 607 170.1 607.37 168.86C607.871 167.119 608.094 165.31 608.03 163.5C607.958 160.82 607.226 158.2 605.9 155.87C605.17 154.56 604.06 153.39 603.15 151.95C602.669 151.216 602.329 150.399 602.15 149.54C601.992 148.636 602.068 147.707 602.37 146.84C602.93 145.11 603.93 143.66 604.15 142.07C604.37 140.48 603.61 139.07 602.85 137.74C602.458 137.093 602.101 136.425 601.78 135.74C601.487 135.075 601.295 134.371 601.21 133.65C601.116 132.379 601.156 131.102 601.33 129.84C601.65 128.056 601.484 126.218 600.85 124.52C600.567 123.925 600.165 123.394 599.67 122.96C599.67 122.96 599.72 122.96 599.79 123.02C599.908 123.079 600.017 123.156 600.11 123.25C600.501 123.576 600.818 123.982 601.04 124.44C601.763 126.153 601.989 128.035 601.69 129.87C601.552 131.109 601.535 132.358 601.64 133.6C601.887 134.997 602.44 136.322 603.26 137.48C603.687 138.156 604.051 138.869 604.35 139.61C604.665 140.41 604.768 141.278 604.65 142.13C604.41 143.88 603.38 145.36 602.86 146.99C602.587 147.776 602.515 148.619 602.65 149.44C602.825 150.234 603.143 150.99 603.59 151.67C604.44 153.06 605.59 154.25 606.32 155.62C607.66 158.028 608.375 160.734 608.4 163.49C608.432 165.335 608.148 167.171 607.56 168.92C607.4 169.393 607.206 169.854 606.98 170.3C606.919 170.464 606.835 170.619 606.73 170.76Z" fill="#014FC1"/>
<path d="M566 357.09C566 357.09 559.26 293.25 558.87 269.66C558.48 246.07 569.48 222.79 569.48 222.79L612.56 221C612.56 221 621.08 244.93 621.23 255C621.53 274.54 616.04 293.83 616.67 309.33L618.11 357.13" fill="#263238"/>
<path d="M619.56 278.6C619.335 278.795 619.098 278.976 618.85 279.14L618.46 279.41L618.04 279.82C617.67 280.14 617.335 280.499 617.04 280.89C615.65 282.59 614.64 285.64 613.67 289.43C613.174 291.532 612.443 293.572 611.49 295.51C611.2 296.041 610.866 296.546 610.49 297.02C610.31 297.26 610.14 297.52 609.93 297.75L609.27 298.41C608.325 299.293 607.227 299.998 606.03 300.49C603.62 301.55 600.89 302.05 598.41 303.3C595.869 304.667 593.906 306.904 592.88 309.6C591.66 312.31 590.88 315.15 589.88 317.81C588.88 320.47 587.53 323.01 585.38 324.63C583.324 326.059 580.883 326.829 578.38 326.84C576.06 326.98 573.91 326.91 571.98 327.2C570.243 327.38 568.583 328.007 567.16 329.02C566.121 329.832 565.342 330.931 564.92 332.18C564.652 332.968 564.593 333.813 564.75 334.63C564.87 335.19 565.02 335.46 564.99 335.47C564.829 335.219 564.714 334.941 564.65 334.65C564.439 333.816 564.467 332.939 564.73 332.12C565.127 330.809 565.912 329.648 566.98 328.79C568.439 327.69 570.165 326.999 571.98 326.79C573.98 326.47 576.11 326.51 578.4 326.36C580.83 326.344 583.198 325.591 585.19 324.2C587.211 322.434 588.703 320.143 589.5 317.58C590.5 314.95 591.23 312.1 592.5 309.34C593.576 306.533 595.628 304.207 598.28 302.79C600.86 301.51 603.59 301.02 605.94 300C607.09 299.524 608.147 298.847 609.06 298L609.69 297.37C609.89 297.15 610.06 296.9 610.24 296.67C610.593 296.215 610.904 295.73 611.17 295.22C612.128 293.309 612.869 291.296 613.38 289.22C614.38 285.44 615.47 282.35 616.94 280.64C617.233 280.25 617.568 279.895 617.94 279.58C618.1 279.44 618.24 279.3 618.38 279.19L618.79 278.93C619.04 278.805 619.297 278.694 619.56 278.6Z" fill="#E0E0E0"/>
<path d="M619.82 249.06C619.866 249.341 619.886 249.625 619.88 249.91C619.877 250.736 619.776 251.558 619.58 252.36C618.719 255.285 617.027 257.898 614.71 259.88C613.181 261.286 611.504 262.523 609.71 263.57C607.78 264.71 605.65 265.8 603.46 267.04C601.16 268.273 599.017 269.781 597.08 271.53C595.093 273.502 593.456 275.798 592.24 278.32C591.014 280.876 589.614 283.345 588.05 285.71C587.255 286.812 586.336 287.819 585.31 288.71C584.299 289.57 583.187 290.306 582 290.9C579.852 291.956 577.613 292.816 575.31 293.47C573.17 294.13 571.17 294.72 569.43 295.47C567.851 296.098 566.348 296.903 564.95 297.87C563.898 298.6 562.953 299.471 562.14 300.46C561.46 301.318 560.892 302.259 560.45 303.26C560.521 302.983 560.615 302.712 560.73 302.45C561.058 301.695 561.478 300.983 561.98 300.33C562.778 299.299 563.721 298.39 564.78 297.63C566.184 296.629 567.697 295.79 569.29 295.13C571.217 294.345 573.183 293.661 575.18 293.08C577.45 292.41 579.658 291.547 581.78 290.5C582.906 289.913 583.962 289.202 584.93 288.38C585.917 287.501 586.802 286.515 587.57 285.44C589.112 283.087 590.499 280.635 591.72 278.1C592.975 275.522 594.666 273.181 596.72 271.18C598.692 269.405 600.875 267.88 603.22 266.64C605.42 265.41 607.55 264.34 609.48 263.21C611.269 262.198 612.946 260.998 614.48 259.63C616.778 257.707 618.483 255.173 619.4 252.32C619.657 251.252 619.798 250.159 619.82 249.06Z" fill="#E0E0E0"/>
<path d="M559.09 273C559.05 272.938 559.02 272.871 559 272.8C558.925 272.607 558.862 272.41 558.81 272.21C558.639 271.414 558.673 270.588 558.91 269.81C559.47 267.81 561.68 265.24 565.24 263.97C567.02 263.36 569.03 262.97 571.13 262.45C572.874 262.161 574.523 261.459 575.941 260.403C577.359 259.347 578.504 257.968 579.28 256.38C579.849 255.214 580.346 254.016 580.77 252.79C581.552 250.128 582.614 247.557 583.94 245.12C585.459 242.724 587.764 240.932 590.46 240.05C592.913 239.254 595.415 238.619 597.95 238.15C600.213 237.715 602.404 236.968 604.46 235.93C606.202 234.935 607.704 233.569 608.86 231.93C610.568 229.563 611.541 226.746 611.66 223.83C611.665 222.76 611.594 221.69 611.45 220.63C611.752 221.669 611.89 222.748 611.86 223.83C611.821 226.809 610.88 229.707 609.16 232.14C607.989 233.833 606.455 235.244 604.67 236.27C602.586 237.347 600.361 238.125 598.06 238.58C595.548 239.057 593.07 239.695 590.64 240.49C588.052 241.338 585.839 243.06 584.38 245.36C583.076 247.764 582.027 250.298 581.25 252.92C580.818 254.168 580.307 255.387 579.72 256.57C579.128 257.706 578.373 258.751 577.48 259.67C575.724 261.272 573.562 262.361 571.23 262.82C569.11 263.36 567.11 263.7 565.36 264.28C561.89 265.46 559.69 267.89 559.1 269.83C558.858 270.578 558.793 271.372 558.91 272.15C558.995 272.427 559.055 272.712 559.09 273Z" fill="#E0E0E0"/>
<path d="M616.12 327C616.161 327.208 616.184 327.418 616.19 327.63C616.209 328.236 616.145 328.841 616 329.43C615.372 331.598 614.042 333.497 612.22 334.83C611.003 335.799 609.657 336.594 608.22 337.19C606.69 337.84 605 338.36 603.22 338.91C601.372 339.45 599.565 340.118 597.81 340.91C595.987 341.781 594.353 343 593 344.5C591.54 346.02 590.28 347.69 588.88 349.17C587.541 350.604 585.985 351.818 584.27 352.77C581.351 354.363 578.085 355.214 574.76 355.25C572.533 355.274 570.319 354.905 568.22 354.16C567.65 353.964 567.095 353.726 566.56 353.45C566.365 353.369 566.18 353.265 566.01 353.14C566.212 353.195 566.409 353.266 566.6 353.35C567.149 353.585 567.71 353.792 568.28 353.97C570.375 354.627 572.565 354.934 574.76 354.88C578.012 354.796 581.195 353.928 584.04 352.35C585.702 351.409 587.209 350.218 588.51 348.82C589.88 347.36 591.13 345.7 592.62 344.14C594.053 342.584 595.78 341.327 597.7 340.44C599.481 339.645 601.315 338.977 603.19 338.44C604.95 337.9 606.63 337.44 608.19 336.78C609.585 336.209 610.897 335.452 612.09 334.53C613.882 333.264 615.218 331.455 615.9 329.37C616.047 328.589 616.121 327.795 616.12 327Z" fill="#E0E0E0"/>
<path d="M611.21 194.46L602.87 194.66C602.549 196.342 601.911 197.947 600.99 199.39C593.99 187.29 588.62 171.09 587.28 164.58C587.48 163.93 587.71 163.21 588 162.41C588.208 161.195 588.17 159.95 587.89 158.75C587.65 157.3 587.25 155.35 587.13 154.45C586.76 151.69 586.31 151.26 585.35 151.57C584.05 152 585.89 159.3 584.82 159.46C584.24 159.54 583.54 157.04 583.34 154.99C583.14 152.94 582.2 146.62 581.53 146.2C580.53 145.58 579.66 146.56 579.92 148.6C580.18 150.64 580.49 156.84 579.41 156.93C578.33 157.02 577.41 146.54 577.41 146.54C577.41 146.54 577.58 144.26 576.32 144.31C574.06 144.41 575.83 155.45 576.02 156.5C576.16 157.22 575.02 157.36 574.88 156.57C574.74 155.78 574.22 146.1 571.88 146.18C570.1 146.18 573.25 155.27 572.25 157.37C571.25 159.47 570.57 150.25 568.88 150.37C568.25 150.42 567.78 150.54 568.94 155.75C570.051 159.889 571.386 163.965 572.94 167.96C575.62 182.41 587.38 228.64 605.81 220.18C616.13 215.44 620.31 194.46 620.31 194.46H611.21Z" fill="#D09983"/>
<path d="M575.66 157.2C575.739 157.22 575.821 157.22 575.9 157.2C576.021 157.163 576.124 157.084 576.192 156.978C576.26 156.872 576.287 156.745 576.27 156.62C576.27 156 576.15 155.1 576.01 153.93C575.776 152.52 575.622 151.097 575.55 149.67C575.55 148.83 575.55 147.93 575.6 146.98C575.615 146.497 575.665 146.016 575.75 145.54C575.83 145.09 576.13 144.54 576.48 144.63H576.54C576.89 144.63 577.17 144.89 577.28 145.31C577.404 145.745 577.451 146.198 577.42 146.65C577.626 149.45 577.983 152.238 578.49 155C578.57 155.37 578.65 155.75 578.77 156.13C578.823 156.324 578.89 156.515 578.97 156.7C579.021 156.803 579.078 156.903 579.14 157C579.185 157.073 579.246 157.135 579.319 157.18C579.392 157.225 579.475 157.252 579.56 157.26C579.706 157.244 579.843 157.185 579.956 157.091C580.068 156.996 580.149 156.871 580.19 156.73C580.276 156.534 580.34 156.33 580.38 156.12C580.458 155.717 580.511 155.309 580.54 154.9C580.631 153.234 580.608 151.563 580.47 149.9C580.344 149.07 580.31 148.228 580.37 147.39C580.406 147.028 580.582 146.694 580.86 146.46C580.924 146.422 580.996 146.398 581.07 146.389C581.144 146.38 581.219 146.388 581.29 146.41C581.375 146.43 581.456 146.464 581.53 146.51C581.581 146.548 581.619 146.6 581.64 146.66C581.955 147.471 582.186 148.312 582.33 149.17C582.51 150.05 582.66 150.96 582.8 151.87C582.94 152.78 583.07 153.7 583.18 154.63C583.266 155.59 583.419 156.542 583.64 157.48C583.758 157.959 583.909 158.431 584.09 158.89C584.192 159.147 584.334 159.387 584.51 159.6C584.578 159.689 584.669 159.756 584.773 159.795C584.878 159.834 584.991 159.843 585.1 159.82C585.201 159.786 585.292 159.728 585.364 159.649C585.436 159.57 585.486 159.474 585.51 159.37C585.628 158.859 585.665 158.332 585.62 157.81C585.62 157.31 585.56 156.81 585.51 156.33C585.44 155.49 585.36 154.66 585.33 153.84C585.305 153.437 585.305 153.033 585.33 152.63C585.35 152.452 585.394 152.277 585.46 152.11C585.481 152.055 585.511 152.004 585.55 151.96H585.68C586.34 151.69 586.56 152.61 586.74 153.35C586.92 154.09 586.99 154.93 587.15 155.72C587.41 157.29 587.75 158.86 587.92 160.36C588.036 161.078 588.009 161.812 587.84 162.52C587.6 163.24 587.36 163.95 587.13 164.66V164.73V164.79C588.301 169.703 589.795 174.533 591.6 179.25C593.18 183.52 594.77 187.25 596.16 190.25C597.55 193.25 598.81 195.6 599.67 197.18L600.67 198.97C600.778 199.183 600.909 199.384 601.06 199.57C600.976 199.348 600.872 199.134 600.75 198.93L599.75 197.1C598.93 195.49 597.75 193.1 596.39 190.1C595.03 187.1 593.49 183.37 591.95 179.1C590.188 174.39 588.725 169.574 587.57 164.68V164.82C587.8 164.12 588.03 163.41 588.27 162.7C588.478 161.921 588.519 161.106 588.39 160.31C588.21 158.74 587.88 157.22 587.62 155.64C587.47 154.86 587.37 154.06 587.21 153.24C587.2 152.819 587.129 152.401 587 152C586.886 151.756 586.692 151.558 586.45 151.44C586.193 151.356 585.917 151.356 585.66 151.44H585.5C585.415 151.467 585.337 151.511 585.27 151.57C585.159 151.664 585.073 151.784 585.02 151.92C584.928 152.136 584.871 152.366 584.85 152.6C584.82 153.033 584.82 153.467 584.85 153.9C584.85 154.74 584.97 155.58 585.04 156.42C585.04 156.91 585.12 157.42 585.14 157.87C585.18 158.321 585.156 158.775 585.07 159.22C585.07 159.32 584.99 159.3 585.07 159.35L585.01 159.29C584.883 159.127 584.782 158.944 584.71 158.75C584.535 158.317 584.392 157.873 584.28 157.42C584.061 156.509 583.91 155.583 583.83 154.65C583.723 153.71 583.593 152.78 583.44 151.86C583.3 150.94 583.14 150.04 582.96 149.14C582.809 148.224 582.554 147.328 582.2 146.47C582.131 146.327 582.024 146.205 581.89 146.12C581.773 146.052 581.649 145.999 581.52 145.96C581.378 145.922 581.229 145.914 581.083 145.934C580.937 145.955 580.797 146.004 580.67 146.08C580.464 146.234 580.292 146.429 580.164 146.653C580.037 146.876 579.957 147.124 579.93 147.38C579.865 147.834 579.865 148.296 579.93 148.75C579.93 149.18 580.03 149.6 580.06 150.02C580.199 151.656 580.229 153.3 580.15 154.94C580.127 155.33 580.077 155.717 580 156.1C579.971 156.279 579.921 156.453 579.85 156.62C579.824 156.686 579.787 156.747 579.74 156.8C579.74 156.89 579.67 156.8 579.68 156.92C579.68 156.82 579.68 156.92 579.68 156.79C579.636 156.722 579.596 156.652 579.56 156.58C579.49 156.42 579.43 156.24 579.37 156.07C579.26 155.71 579.18 155.34 579.1 154.98C578.578 152.242 578.201 149.478 577.97 146.7C578 146.197 577.943 145.693 577.8 145.21C577.734 144.958 577.599 144.729 577.41 144.55C577.312 144.455 577.196 144.382 577.069 144.334C576.942 144.285 576.806 144.264 576.67 144.27H576.73C576.561 144.245 576.388 144.271 576.233 144.344C576.079 144.417 575.949 144.534 575.86 144.68C575.711 144.918 575.61 145.183 575.56 145.46C575.476 145.956 575.429 146.457 575.42 146.96C575.42 147.96 575.42 148.83 575.42 149.68C575.515 151.117 575.699 152.546 575.97 153.96C576.14 155.12 576.27 156.02 576.33 156.63C576.349 156.737 576.331 156.847 576.278 156.942C576.225 157.036 576.141 157.11 576.04 157.15C575.74 157.18 575.65 157.19 575.66 157.2Z" fill="#A36957"/>
<path d="M510.53 208.23C508.579 208.188 506.63 208.414 504.74 208.9C499.57 210.26 490.66 215.66 490.29 222.33H496.77C496.77 222.33 493.14 230.05 494.2 229.33C496.97 227.47 502.47 221.88 502.47 221.88L510.53 208.23Z" fill="#D09983"/>
<path d="M598.86 92C598.71 92 598.13 86.66 597.55 80C596.97 73.34 596.61 68 596.75 68C596.89 68 597.48 73.34 598.06 80C598.64 86.66 599 92 598.86 92Z" fill="#263238"/>
<path d="M627.27 68.4099C627.38 68.4899 623.01 74.8399 617.5 82.5899C611.99 90.3399 607.42 96.5899 607.3 96.4699C607.18 96.3499 611.56 90.0399 617.07 82.2899C622.58 74.5399 627.15 68.3299 627.27 68.4099Z" fill="#263238"/>
<path d="M639.07 97.1901C639.07 97.3301 633.99 98.5001 627.67 99.8001C621.35 101.1 616.19 102.04 616.16 101.9C616.13 101.76 621.23 100.59 627.56 99.2901C633.89 97.9901 639 97.0501 639.07 97.1901Z" fill="#263238"/>
<path d="M241.71 103.48C244.65 104.15 246.08 107.54 246.36 110.54C246.64 113.54 246.26 116.72 247.52 119.46C248.94 122.54 252.33 124.82 252.44 128.21C252.51 130.28 251.28 132.21 251.34 134.3C251.44 137.7 254.9 140.3 255.09 143.66C255.22 146.11 253.59 148.45 253.98 150.87C254.28 152.75 255.75 154.23 256.37 156.03C257.6 159.63 255.13 163.58 251.92 165.6C250.122 166.731 248.098 167.455 245.991 167.722C243.884 167.99 241.743 167.794 239.72 167.148C237.696 166.502 235.837 165.422 234.274 163.984C232.711 162.546 231.481 160.783 230.67 158.82C228.89 154.5 229.28 149.63 229.67 144.98C230.87 130.473 231.763 115.947 232.35 101.4" fill="#263238"/>
<path d="M250.25 154.66C249.645 154.284 249.173 153.728 248.9 153.07C248.612 152.287 248.496 151.452 248.56 150.62C248.67 149.517 248.915 148.433 249.29 147.39C249.768 146.08 249.946 144.678 249.81 143.29C249.56 141.73 248.44 140.45 247.43 139.19C246.886 138.573 246.432 137.883 246.08 137.14C245.728 136.388 245.67 135.532 245.92 134.74C246.44 133.11 248.04 131.91 248.77 130.02C249.113 129.084 249.169 128.068 248.93 127.1C248.703 126.193 248.367 125.317 247.93 124.49C247.086 123.002 246.415 121.421 245.93 119.78C245.23 116.61 245.56 113.58 245.08 111.09C244.814 109.096 243.929 107.235 242.55 105.77C242.16 105.375 241.715 105.039 241.23 104.77C241.063 104.683 240.885 104.619 240.7 104.58C241.327 104.925 241.902 105.356 242.41 105.86C243.687 107.34 244.492 109.169 244.72 111.11C244.895 112.436 244.989 113.772 245 115.11C245.003 116.685 245.157 118.255 245.46 119.8C245.937 121.479 246.608 123.097 247.46 124.62C248.21 126.19 248.9 128.03 248.24 129.75C247.58 131.47 245.99 132.66 245.38 134.5C245.105 135.409 245.172 136.388 245.57 137.25C245.96 138.068 246.465 138.826 247.07 139.5C248.07 140.76 249.16 141.96 249.4 143.36C249.54 144.688 249.383 146.03 248.94 147.29C248.583 148.365 248.361 149.48 248.28 150.61C248.231 151.48 248.385 152.35 248.73 153.15C248.945 153.652 249.29 154.087 249.73 154.41C249.887 154.525 250.063 154.609 250.25 154.66Z" fill="#FFD767"/>
<path d="M258.07 178.37L267.07 204.37L304.71 206.37L310.99 220.37L271.69 224.37C269.833 225.132 267.841 225.51 265.834 225.481C263.827 225.452 261.847 225.016 260.013 224.2C258.18 223.384 256.53 222.205 255.165 220.734C253.8 219.262 252.747 217.53 252.07 215.64L241.58 186.36L258.07 178.37Z" fill="#E69C7F"/>
<path d="M180.26 423.7C180.26 423.7 207.84 336.08 208.43 333.24C208.96 330.66 198.43 267.61 197.09 251.24L234.36 252.63V253L250.2 253.88L236.02 433H218.87L220.57 373.55C209.99 401.94 194.83 430.88 194.83 430.88L180.26 423.7Z" fill="#E69C7F"/>
<path d="M219.87 394.88C219.87 394.34 220.08 374.96 220.08 374.96C220.29 376.12 226.65 358.14 226.5 357.05C226.42 356.48 219.87 394.88 219.87 394.88Z" fill="#B9745E"/>
<path d="M227.22 348.53C227.308 348.886 227.345 349.253 227.33 349.62C227.385 350.619 227.385 351.621 227.33 352.62C227.33 353.25 227.24 353.93 227.16 354.67C227.08 355.41 226.97 356.19 226.8 357C226.444 358.769 225.973 360.512 225.39 362.22C224.15 365.85 222.77 369.02 221.8 371.32C221.34 372.32 220.94 373.27 220.6 374.03C220.477 374.383 220.309 374.72 220.1 375.03C220.153 374.684 220.254 374.348 220.4 374.03C220.63 373.37 220.98 372.42 221.4 371.25C222.28 368.91 223.6 365.71 224.83 362.12C225.412 360.437 225.889 358.721 226.26 356.98C226.44 356.18 226.56 355.41 226.67 354.69C226.78 353.97 226.86 353.29 226.91 352.69C227.03 351.45 227.08 350.45 227.11 349.75C227.091 349.34 227.128 348.93 227.22 348.53Z" fill="#B9745E"/>
<path d="M236.34 433.91V432.3L218.77 431.53L218.72 438.18L219.8 438.25C224.63 438.53 244.35 439.35 247.57 438.38C251.18 437.3 236.34 433.91 236.34 433.91Z" fill="#FFD767"/>
<path d="M218.49 437.78C218.59 437.786 218.69 437.786 218.79 437.78L219.65 437.84L222.83 437.98C225.51 438.09 229.22 438.19 233.31 438.21C237.4 438.23 241.12 438.16 243.81 438.08L246.98 437.95H247.85H248.15C248.05 437.942 247.95 437.942 247.85 437.95H246.98L243.8 438.01C241.12 438.01 237.41 438.09 233.32 438.07C229.23 438.05 225.51 437.98 222.83 437.91L219.65 437.83H218.49V437.78Z" fill="#263238"/>
<path d="M242.07 438.34C242.216 437.817 242.417 437.311 242.67 436.83C242.986 436.387 243.352 435.981 243.76 435.62C243.214 435.815 242.761 436.208 242.49 436.72C242.159 437.192 242.01 437.767 242.07 438.34Z" fill="#263238"/>
<path d="M236.89 435.71C236.89 435.71 237.18 435.44 237.44 435.04C237.7 434.64 237.86 434.29 237.81 434.26C237.76 434.23 237.52 434.52 237.26 434.92C237 435.32 236.84 435.68 236.89 435.71Z" fill="#263238"/>
<path d="M235.47 435C235.47 435.05 235.79 434.86 236.09 434.59C236.39 434.32 236.61 434.07 236.57 434.03C236.53 433.99 236.25 434.17 235.95 434.44C235.65 434.71 235.43 434.91 235.47 435Z" fill="#263238"/>
<path d="M234.58 433.3C234.874 433.408 235.188 433.449 235.5 433.42C235.806 433.46 236.118 433.43 236.41 433.33C236.119 433.223 235.808 433.182 235.5 433.21C235.191 433.168 234.875 433.198 234.58 433.3Z" fill="#263238"/>
<path d="M234.28 432.14C234.578 432.333 234.925 432.437 235.28 432.44C235.62 432.485 235.966 432.436 236.28 432.3C235.95 432.244 235.615 432.217 235.28 432.22C234.95 432.161 234.615 432.134 234.28 432.14Z" fill="#263238"/>
<path d="M237.48 434.18C237.853 434.25 238.237 434.25 238.61 434.18C239.014 434.131 239.412 434.044 239.8 433.92C240.04 433.853 240.272 433.759 240.49 433.64C240.623 433.561 240.723 433.437 240.77 433.29C240.788 433.206 240.782 433.119 240.752 433.04C240.722 432.96 240.669 432.89 240.6 432.84C240.323 432.706 240.02 432.635 239.712 432.632C239.404 432.629 239.1 432.695 238.821 432.824C238.541 432.953 238.294 433.143 238.097 433.379C237.9 433.615 237.757 433.892 237.68 434.19C237.66 434.289 237.66 434.391 237.68 434.49C237.793 434.128 237.969 433.79 238.2 433.49C238.466 433.19 238.814 432.975 239.2 432.87C239.643 432.727 240.124 432.763 240.54 432.97C240.71 433.1 240.64 433.31 240.45 433.43C240.246 433.54 240.032 433.631 239.81 433.7C239.434 433.823 239.05 433.92 238.66 433.99C237.91 434.15 237.48 434.15 237.48 434.18Z" fill="#263238"/>
<path d="M237.77 434.24C237.916 434.008 237.966 433.728 237.91 433.46C237.874 433.166 237.767 432.885 237.6 432.64C237.506 432.473 237.372 432.332 237.209 432.231C237.047 432.13 236.861 432.071 236.67 432.06C236.557 432.086 236.458 432.155 236.393 432.251C236.328 432.348 236.302 432.465 236.32 432.58C236.345 432.759 236.41 432.93 236.51 433.08C236.662 433.328 236.84 433.559 237.04 433.77C237.214 433.969 237.434 434.124 237.68 434.22C237.68 434.22 237.46 434.02 237.15 433.66C236.97 433.454 236.813 433.229 236.68 432.99C236.53 432.75 236.42 432.32 236.68 432.27C236.94 432.22 237.24 432.53 237.41 432.75C237.569 432.967 237.678 433.216 237.73 433.48C237.771 433.731 237.784 433.986 237.77 434.24Z" fill="#263238"/>
<path d="M218.86 433C218.86 433 219.36 433 220.15 433.05C221.179 433.173 222.152 433.582 222.96 434.231C223.768 434.88 224.378 435.742 224.72 436.72C224.98 437.47 225 437.98 225.04 437.97C225.08 437.96 225.04 437.84 225.04 437.62C225.014 437.298 224.954 436.979 224.86 436.67C224.542 435.646 223.93 434.739 223.1 434.06C222.26 433.393 221.239 432.993 220.17 432.91C219.838 432.87 219.502 432.87 219.17 432.91C219.063 432.926 218.959 432.957 218.86 433Z" fill="#263238"/>
<path d="M227.27 436.38C228.109 436.575 228.969 436.659 229.83 436.63C230.686 436.673 231.544 436.599 232.38 436.41C232.38 436.35 231.24 436.41 229.83 436.41C228.42 436.41 227.28 436.32 227.27 436.38Z" fill="#263238"/>
<path d="M223.85 436.35C223.85 436.35 223.94 436.59 224.06 436.85C224.18 437.11 224.24 437.35 224.3 437.34C224.36 437.33 224.39 437.07 224.25 436.76C224.11 436.45 223.89 436.3 223.85 436.35Z" fill="#263238"/>
<path d="M222.56 434.74C222.56 434.74 222.63 434.96 222.81 435.14C222.99 435.32 223.17 435.44 223.22 435.4C223.27 435.36 223.15 435.18 222.97 434.99C222.79 434.8 222.61 434.69 222.56 434.74Z" fill="#263238"/>
<path d="M220.72 434C220.72 434.06 220.96 434.06 221.22 434.15C221.48 434.24 221.66 434.38 221.71 434.34C221.76 434.3 221.61 434.06 221.29 433.95C220.97 433.84 220.7 433.94 220.72 434Z" fill="#263238"/>
<path d="M219.41 433.64C219.41 433.7 219.48 433.79 219.63 433.84C219.78 433.89 219.91 433.9 219.93 433.84C219.95 433.78 219.85 433.69 219.71 433.64C219.57 433.59 219.43 433.59 219.41 433.64Z" fill="#263238"/>
<path d="M195.18 432.36L195.84 430.89L180.13 423L177.36 429L178.36 429.51C182.65 431.74 200.3 440.56 203.64 441C207.33 441.53 195.18 432.36 195.18 432.36Z" fill="#FFD767"/>
<path d="M177.3 428.57L177.56 428.73L178.33 429.13L181.17 430.57C183.57 431.76 186.91 433.37 190.64 435.07C194.37 436.77 197.79 438.22 200.27 439.25L203.22 440.44L204.02 440.75C204.112 440.793 204.21 440.823 204.31 440.84L204.04 440.71L203.25 440.36L200.33 439.11C197.86 438.05 194.46 436.57 190.73 434.87C187 433.17 183.65 431.59 181.23 430.43L178.37 429.06L177.58 428.69L177.3 428.57Z" fill="#263238"/>
<path d="M198.55 438.74C198.897 438.318 199.289 437.936 199.72 437.6C200.189 437.322 200.689 437.101 201.21 436.94C200.636 436.932 200.073 437.101 199.598 437.423C199.122 437.745 198.756 438.204 198.55 438.74Z" fill="#263238"/>
<path d="M194.94 434.22C194.94 434.22 195.32 434.1 195.72 433.84C196.12 433.58 196.41 433.33 196.38 433.28C196.35 433.23 196 433.4 195.6 433.66C195.2 433.92 194.91 434.17 194.94 434.22Z" fill="#263238"/>
<path d="M193.96 433C193.96 433.05 194.3 433 194.69 432.88C195.08 432.76 195.37 432.61 195.36 432.55C195.107 432.526 194.852 432.568 194.62 432.67C194.24 432.76 193.94 432.9 193.96 433Z" fill="#263238"/>
<path d="M193.82 431.08C193.82 431.14 194.15 431.35 194.61 431.57C194.875 431.729 195.172 431.828 195.48 431.86C195.48 431.8 195.15 431.59 194.7 431.37C194.431 431.211 194.131 431.113 193.82 431.08Z" fill="#263238"/>
<path d="M194.02 429.9C194.02 429.9 194.31 430.3 194.83 430.59C195.125 430.79 195.474 430.895 195.83 430.89C195.543 430.697 195.239 430.533 194.92 430.4C194.43 430.13 194.07 429.85 194.02 429.9Z" fill="#263238"/>
<path d="M196.07 433.08C196.375 433.289 196.713 433.445 197.07 433.54C197.463 433.655 197.864 433.738 198.27 433.79C198.516 433.821 198.764 433.821 199.01 433.79C199.164 433.778 199.308 433.707 199.41 433.59C199.457 433.519 199.481 433.435 199.481 433.35C199.481 433.265 199.457 433.181 199.41 433.11C199.106 432.742 198.683 432.49 198.215 432.399C197.746 432.308 197.26 432.383 196.84 432.61C196.592 432.74 196.374 432.921 196.2 433.14C196.08 433.3 196.03 433.4 196.04 433.41C196.286 433.135 196.581 432.908 196.91 432.74C197.262 432.575 197.655 432.516 198.04 432.57C198.269 432.594 198.491 432.663 198.694 432.772C198.896 432.882 199.075 433.031 199.22 433.21C199.33 433.4 199.22 433.56 198.95 433.59C198.72 433.61 198.49 433.61 198.26 433.59C197.862 433.55 197.467 433.48 197.08 433.38C196.51 433.22 196.07 433.05 196.07 433.08Z" fill="#263238"/>
<path d="M196.35 433.25C196.573 433.092 196.73 432.857 196.79 432.59C196.878 432.309 196.898 432.011 196.85 431.72C196.833 431.528 196.767 431.344 196.658 431.185C196.55 431.025 196.402 430.896 196.23 430.81C195.98 430.73 195.4 431.24 195.36 431.43C195.32 431.62 195.65 431.52 195.67 431.68C195.702 431.964 195.77 432.243 195.87 432.51C195.943 432.767 196.081 433.002 196.27 433.19C196.27 433.19 196.15 432.92 196.01 432.47C195.938 432.205 195.888 431.934 195.86 431.66C195.86 431.38 195.86 430.95 196.18 431.02C196.5 431.09 196.59 431.48 196.66 431.76C196.721 432.02 196.721 432.29 196.66 432.55C196.577 432.792 196.474 433.026 196.35 433.25Z" fill="#263238"/>
<path d="M179.6 424.36C179.6 424.36 180.08 424.53 180.76 424.94C181.649 425.472 182.373 426.24 182.85 427.16C183.313 428.088 183.51 429.126 183.42 430.16C183.36 430.96 183.17 431.42 183.21 431.44C183.275 431.341 183.325 431.233 183.36 431.12C183.459 430.814 183.529 430.499 183.57 430.18C183.713 429.115 183.529 428.032 183.041 427.074C182.553 426.117 181.786 425.33 180.84 424.82C180.557 424.663 180.259 424.536 179.95 424.44C179.838 424.396 179.72 424.369 179.6 424.36Z" fill="#263238"/>
<path d="M185.89 430.9C187.3 431.88 188.875 432.598 190.54 433.02C190.54 432.96 189.49 432.56 188.21 432.02C186.93 431.48 185.92 430.85 185.89 430.9Z" fill="#263238"/>
<path d="M182.78 429.47C182.73 429.47 182.78 429.72 182.78 430.01C182.78 430.3 182.78 430.54 182.78 430.56C182.78 430.58 182.98 430.34 182.98 430.01C182.98 429.68 182.83 429.44 182.78 429.47Z" fill="#263238"/>
<path d="M182.27 427.47C182.22 427.47 182.27 427.7 182.33 427.94C182.39 428.18 182.54 428.36 182.59 428.34C182.64 428.32 182.59 428.11 182.53 427.87C182.47 427.63 182.33 427.45 182.27 427.47Z" fill="#263238"/>
<path d="M180.89 426C180.89 426.06 181.09 426.15 181.29 426.34C181.49 426.53 181.6 426.73 181.65 426.71C181.7 426.69 181.65 426.41 181.43 426.18C181.21 425.95 180.9 426 180.89 426Z" fill="#263238"/>
<path d="M179.84 425.18C179.84 425.18 179.84 425.34 179.96 425.45C180.08 425.56 180.19 425.62 180.23 425.58C180.27 425.54 180.23 425.42 180.11 425.31C179.99 425.2 179.88 425.14 179.84 425.18Z" fill="#263238"/>
<path d="M199.51 221.64L202.43 185.94L187.43 186.21C187.43 186.21 186.74 180.94 188.95 169.4C190.31 162.32 195.02 157.98 200.31 155.4V155.3L200.77 155.18C205.125 153.225 209.775 152.011 214.53 151.59L232.98 151.8C232.98 151.8 247.07 150 254.84 160.09C257.84 163.96 267.15 190.45 267.15 190.45L245 201.11L247.07 186.42C247.07 186.42 246.65 197.07 245.29 200.42C244.54 202.3 242.29 208.14 242.29 208.14L242.58 225.76L199.51 221.64Z" fill="#FFD767"/>
<path d="M209.68 180.76L212.42 192.42H186.59L188.29 172.86L209.68 180.76Z" fill="#FFD767"/>
<path d="M186.59 192.42C187.719 192.212 188.863 192.098 190.01 192.08C192.13 191.96 195.01 191.85 198.29 191.87C201.57 191.89 204.46 192.03 206.58 192.19C207.727 192.23 208.868 192.37 209.99 192.61C208.845 192.701 207.695 192.701 206.55 192.61C204.44 192.54 201.55 192.46 198.29 192.45C195.03 192.44 192.14 192.45 190.02 192.5C188.876 192.564 187.729 192.537 186.59 192.42Z" fill="#263238"/>
<path d="M210.8 172.77C210.923 173.765 210.95 174.77 210.88 175.77C210.88 177.6 210.8 180.12 210.69 182.91C210.58 185.7 210.45 188.23 210.33 190.05C210.325 191.058 210.218 192.063 210.01 193.05C209.887 192.055 209.86 191.05 209.93 190.05C209.93 188.22 210.01 185.69 210.12 182.9C210.23 180.11 210.36 177.59 210.48 175.76C210.484 174.755 210.591 173.753 210.8 172.77Z" fill="#263238"/>
<g opacity="0.3">
<path d="M234.3 182.87C234.3 182.87 228.56 225.44 212.42 224.31C212.42 224.31 205.15 224.23 202.82 219.4V217.5L234.3 182.87Z" fill="#BC5656"/>
</g>
<g opacity="0.3">
<path d="M210.8 175.28L213.89 196.15L211.89 199.81L208.59 192.65L209.99 192.61L210.8 175.28Z" fill="#BC5656"/>
</g>
<path d="M242.38 208.16C242.572 207.848 242.72 207.512 242.82 207.16C243.07 206.51 243.4 205.56 243.82 204.37C244.821 201.269 245.646 198.114 246.29 194.92C246.932 191.724 247.34 188.485 247.51 185.23C247.57 183.98 247.59 182.97 247.57 182.23C247.596 181.868 247.572 181.505 247.5 181.15C247.42 181.15 247.36 182.69 247.15 185.15C246.869 188.376 246.411 191.584 245.78 194.76C245.04 198.48 244.15 201.81 243.47 204.2C243.15 205.31 242.88 206.26 242.66 207.04C242.523 207.401 242.429 207.777 242.38 208.16Z" fill="#263238"/>
<path d="M235.86 220.39C236 220.39 236.4 219.52 236.75 218.39C237.051 217.697 237.185 216.944 237.14 216.19C236.699 216.801 236.395 217.5 236.25 218.24C235.963 218.919 235.83 219.653 235.86 220.39Z" fill="#263238"/>
<path d="M233.63 220.23C234.386 218.224 234.418 216.017 233.72 213.99C233.642 215.029 233.642 216.072 233.72 217.11C233.611 218.146 233.581 219.189 233.63 220.23Z" fill="#263238"/>
<path d="M244.55 201.6C244.62 201.72 249.77 199.28 256.06 196.14C262.35 193 267.4 190.34 267.34 190.21C267.28 190.08 262.12 192.53 255.83 195.67C249.54 198.81 244.49 201.47 244.55 201.6Z" fill="#263238"/>
<path d="M235.47 155.25C235.36 150.19 235.33 144.87 235.33 144.87C235.33 144.87 241.82 143.62 242.95 135.08C244.03 126.94 241.01 107.83 241.01 107.83C231.53 104.25 221.68 107.5 215.19 115.18L216.8 156.25C216.99 161.02 221.24 164.66 226.34 164.42C231.5 164.17 235.58 160.07 235.47 155.25Z" fill="#E69C7F"/>
<path d="M241.51 123.1C241.519 123.38 241.42 123.653 241.234 123.863C241.049 124.073 240.789 124.205 240.51 124.23C240.368 124.244 240.225 124.228 240.089 124.185C239.953 124.141 239.828 124.071 239.72 123.977C239.612 123.884 239.525 123.769 239.463 123.641C239.401 123.512 239.366 123.372 239.36 123.23C239.351 122.951 239.45 122.679 239.636 122.47C239.823 122.262 240.082 122.133 240.36 122.11C240.503 122.088 240.648 122.098 240.787 122.138C240.925 122.177 241.053 122.247 241.162 122.341C241.272 122.435 241.359 122.551 241.419 122.682C241.479 122.813 241.51 122.956 241.51 123.1Z" fill="#263238"/>
<path d="M241.91 121.67C241.78 121.81 240.91 121.22 239.76 121.26C238.61 121.3 237.76 121.9 237.62 121.76C237.48 121.62 237.68 121.44 238.05 121.15C238.551 120.787 239.152 120.588 239.77 120.58C240.379 120.557 240.979 120.732 241.48 121.08C241.85 121.35 241.98 121.6 241.91 121.67Z" fill="#263238"/>
<path d="M229.6 123.84C229.611 124.121 229.514 124.396 229.327 124.606C229.141 124.817 228.88 124.947 228.6 124.97C228.457 124.992 228.31 124.982 228.171 124.942C228.032 124.901 227.903 124.831 227.794 124.736C227.684 124.641 227.597 124.523 227.538 124.391C227.478 124.259 227.448 124.115 227.45 123.97C227.439 123.69 227.537 123.417 227.724 123.208C227.91 122.999 228.171 122.871 228.45 122.85C228.593 122.829 228.738 122.838 228.877 122.878C229.015 122.918 229.143 122.987 229.252 123.081C229.362 123.175 229.449 123.292 229.509 123.423C229.569 123.554 229.6 123.696 229.6 123.84Z" fill="#263238"/>
<path d="M229.68 122.41C229.55 122.56 228.68 121.97 227.53 122C226.38 122.03 225.53 122.64 225.38 122.5C225.23 122.36 225.45 122.18 225.82 121.9C226.313 121.528 226.913 121.324 227.53 121.32C228.142 121.302 228.744 121.477 229.25 121.82C229.61 122.09 229.74 122.34 229.68 122.41Z" fill="#263238"/>
<path d="M234.16 131C234.774 130.789 235.413 130.658 236.06 130.61C236.36 130.61 236.64 130.5 236.68 130.3C236.704 129.988 236.627 129.676 236.46 129.41L235.52 127.16C234.645 125.248 233.926 123.268 233.37 121.24C234.394 123.078 235.27 124.994 235.99 126.97C236.3 127.76 236.61 128.52 236.9 129.24C237.094 129.597 237.158 130.011 237.08 130.41C237.041 130.519 236.977 130.617 236.894 130.696C236.81 130.776 236.71 130.836 236.6 130.87C236.434 130.918 236.263 130.945 236.09 130.95C235.451 131.049 234.803 131.065 234.16 131Z" fill="#263238"/>
<path d="M235.33 144.87C231.329 145.03 227.362 144.078 223.87 142.12C223.87 142.12 226.78 147.89 235.27 146.88L235.33 144.87Z" fill="#B9745E"/>
<path d="M225.92 119C226.16 119.37 227.06 119.21 228.06 119C229.06 118.79 229.94 118.62 230.06 118.19C230.18 117.76 229.13 117.19 227.79 117.46C226.45 117.73 225.68 118.68 225.92 119Z" fill="#263238"/>
<path d="M237.59 117.3C237.68 117.73 238.64 117.89 239.74 117.94C240.84 117.99 241.81 117.94 241.94 117.5C242.07 117.06 241.14 116.44 239.81 116.38C238.48 116.32 237.5 116.89 237.59 117.3Z" fill="#263238"/>
<path d="M234.14 133.81C234.266 133.78 234.399 133.794 234.517 133.848C234.635 133.902 234.731 133.995 234.79 134.11C234.847 134.212 234.876 134.327 234.875 134.444C234.874 134.561 234.842 134.675 234.783 134.776C234.724 134.877 234.639 134.96 234.538 135.018C234.437 135.076 234.322 135.107 234.205 135.107C234.088 135.107 233.973 135.076 233.872 135.018C233.771 134.96 233.686 134.877 233.627 134.776C233.568 134.675 233.536 134.561 233.535 134.444C233.534 134.327 233.563 134.212 233.62 134.11C233.692 133.976 233.807 133.87 233.947 133.81C234.087 133.75 234.243 133.74 234.39 133.78" fill="#B9745E"/>
<path d="M233.87 133.93C233.87 133.88 234.06 133.59 234.57 133.7C234.723 133.74 234.862 133.819 234.974 133.929C235.087 134.04 235.168 134.178 235.21 134.33C235.264 134.521 235.259 134.725 235.197 134.913C235.134 135.102 235.017 135.268 234.86 135.39C234.694 135.504 234.497 135.565 234.295 135.565C234.093 135.565 233.896 135.504 233.73 135.39C233.597 135.3 233.493 135.175 233.429 135.028C233.365 134.881 233.345 134.718 233.37 134.56C233.47 134.03 233.86 133.95 233.88 134.02C233.9 134.09 233.74 134.27 233.77 134.58C233.777 134.657 233.802 134.73 233.844 134.795C233.886 134.859 233.943 134.913 234.01 134.95C234.088 134.995 234.176 135.018 234.265 135.018C234.355 135.018 234.443 134.995 234.52 134.95C234.59 134.891 234.643 134.815 234.675 134.729C234.706 134.643 234.715 134.55 234.7 134.46C234.689 134.381 234.658 134.306 234.611 134.242C234.564 134.177 234.502 134.125 234.43 134.09C234.15 133.92 233.9 134 233.87 133.93Z" fill="#263238"/>
<path d="M219.07 125.21C220.07 127.55 222.55 129.36 222.21 131.89C221.99 133.52 220.94 135.04 221.14 136.68C221.4 138.68 223.53 140.16 223.84 142.21C224.21 144.72 221.76 146.67 220.79 149.01C219.36 152.43 221.18 156.27 221.23 160.01C221.171 162.849 220.085 165.571 218.173 167.671C216.26 169.771 213.652 171.106 210.83 171.43C208.55 171.62 205.98 170.93 204.83 168.97C203.83 167.35 204.05 165.29 203.47 163.5C202.59 160.82 200.04 158.86 199.47 156.1C198.47 151.1 204.57 146.9 204.17 141.78C204 139.59 202.65 137.69 202.08 135.57C201.717 134.177 201.689 132.717 201.999 131.311C202.308 129.905 202.946 128.592 203.86 127.48C205.37 125.69 207.55 124.48 208.86 122.56C210.31 120.35 210.36 117.56 210.86 114.95C211.531 111.777 212.996 108.827 215.117 106.374C217.239 103.922 219.947 102.047 222.99 100.925C226.032 99.8036 229.309 99.4716 232.515 99.9603C235.721 100.449 238.75 101.742 241.32 103.72C241.32 103.72 242.77 110.31 236 111.42C229.23 112.53 226.1 111.25 225.34 113.96C225.519 115.076 225.431 116.219 225.084 117.295C224.736 118.371 224.138 119.349 223.34 120.15C220.58 123.13 217.95 122.49 219.07 125.21Z" fill="#263238"/>
<path d="M208.32 170.92C208.528 170.927 208.737 170.907 208.94 170.86C209.526 170.756 210.102 170.599 210.66 170.39C212.725 169.598 214.536 168.261 215.9 166.52C216.856 165.319 217.607 163.967 218.12 162.52C218.704 160.872 219.012 159.139 219.03 157.39C219.051 155.463 218.809 153.542 218.31 151.68C218.037 150.697 217.703 149.732 217.31 148.79C216.897 147.853 216.533 146.895 216.22 145.92C215.945 144.959 215.945 143.941 216.22 142.98C216.513 142.034 216.891 141.117 217.35 140.24C217.814 139.37 218.205 138.464 218.52 137.53C218.828 136.606 218.9 135.619 218.73 134.66C218.33 132.78 217.19 131.38 216.51 129.95C215.862 128.626 215.553 127.163 215.61 125.69C215.701 123.535 216.483 121.467 217.84 119.79C218.366 119.203 218.93 118.652 219.53 118.14C218.829 118.534 218.202 119.049 217.68 119.66C216.224 121.334 215.365 123.445 215.24 125.66C215.157 127.197 215.46 128.73 216.12 130.12C216.81 131.6 217.92 133.01 218.26 134.73C218.6 136.45 217.79 138.26 216.9 140C216.415 140.902 216.019 141.85 215.72 142.83C215.425 143.876 215.425 144.984 215.72 146.03C216.053 147.039 216.437 148.03 216.87 149C217.263 149.921 217.597 150.866 217.87 151.83C218.366 153.645 218.612 155.519 218.6 157.4C218.631 160.604 217.597 163.728 215.66 166.28C214.365 167.999 212.641 169.348 210.66 170.19C209.17 170.77 208.31 170.86 208.32 170.92Z" fill="#FFD767"/>
<path d="M209.32 120.46C209.807 120.586 210.307 120.66 210.81 120.68C212.182 120.827 213.568 120.79 214.93 120.57C215.963 120.417 216.954 120.06 217.847 119.519C218.74 118.978 219.516 118.264 220.13 117.42C220.702 116.352 221.158 115.225 221.49 114.06C221.917 112.896 222.719 111.907 223.77 111.25C225.96 109.86 228.53 109.69 230.77 109.42C232.836 109.317 234.842 108.691 236.6 107.6C237.777 106.82 238.628 105.635 238.99 104.27C239.077 103.9 239.101 103.518 239.06 103.14C239.06 102.88 239 102.75 238.98 102.75C238.968 103.245 238.905 103.738 238.79 104.22C238.376 105.496 237.526 106.587 236.39 107.3C234.665 108.307 232.716 108.87 230.72 108.94C228.48 109.2 225.82 109.33 223.48 110.81C222.335 111.529 221.462 112.609 221 113.88C220.687 115.016 220.254 116.115 219.71 117.16C218.545 118.758 216.8 119.835 214.85 120.16C213.532 120.405 212.189 120.496 210.85 120.43C210.34 120.401 209.828 120.411 209.32 120.46Z" fill="#FFD767"/>
<path d="M211.8 112.32C212.177 112.446 212.573 112.503 212.97 112.49C214.834 112.502 216.629 111.784 217.97 110.49C218.582 109.876 219.104 109.179 219.52 108.42C220.42 106.9 221.29 105.03 223.16 104.25C224.962 103.645 226.881 103.477 228.76 103.76C230.346 103.983 231.954 103.983 233.54 103.76C234.643 103.607 235.682 103.15 236.54 102.44C236.762 102.246 236.957 102.024 237.12 101.78C237.24 101.606 237.29 101.516 237.27 101.51C237.27 101.51 236.99 101.83 236.41 102.28C235.555 102.888 234.562 103.273 233.52 103.4C231.963 103.575 230.39 103.548 228.84 103.32C226.879 102.999 224.868 103.171 222.99 103.82C222.024 104.254 221.197 104.946 220.6 105.82C220.073 106.599 219.589 107.407 219.15 108.24C218.756 108.967 218.268 109.639 217.7 110.24C217.198 110.748 216.621 111.176 215.99 111.51C215.06 111.995 214.037 112.278 212.99 112.34C212.22 112.33 211.81 112.27 211.8 112.32Z" fill="#FFD767"/>
<path d="M205.34 168.76C205.39 168.76 205.07 168.1 204.7 166.86C204.199 165.119 203.976 163.31 204.04 161.5C204.113 158.82 204.844 156.2 206.17 153.87C206.9 152.56 208.01 151.39 208.92 149.95C209.401 149.216 209.741 148.399 209.92 147.54C210.078 146.636 210.002 145.707 209.7 144.84C209.14 143.11 208.14 141.66 207.92 140.07C207.7 138.48 208.46 137.07 209.22 135.74C209.612 135.093 209.969 134.425 210.29 133.74C210.583 133.075 210.775 132.371 210.86 131.65C210.954 130.379 210.914 129.102 210.74 127.84C210.42 126.056 210.586 124.218 211.22 122.52C211.503 121.925 211.905 121.394 212.4 120.96C212.4 120.96 212.35 120.96 212.28 121.02C212.162 121.079 212.054 121.156 211.96 121.25C211.569 121.576 211.252 121.982 211.03 122.44C210.307 124.153 210.081 126.035 210.38 127.87C210.518 129.109 210.535 130.358 210.43 131.6C210.183 132.997 209.63 134.322 208.81 135.48C208.383 136.156 208.019 136.869 207.72 137.61C207.405 138.41 207.302 139.278 207.42 140.13C207.66 141.88 208.69 143.36 209.21 144.99C209.483 145.776 209.555 146.619 209.42 147.44C209.245 148.234 208.927 148.99 208.48 149.67C207.63 151.06 206.48 152.25 205.75 153.62C204.41 156.028 203.695 158.734 203.67 161.49C203.638 163.335 203.922 165.171 204.51 166.92C204.67 167.393 204.864 167.854 205.09 168.3C205.151 168.464 205.235 168.619 205.34 168.76Z" fill="#FFD767"/>
<path d="M246.07 355.09C246.07 355.09 252.81 291.25 253.2 267.66C253.59 244.07 242.59 220.79 242.59 220.79L199.51 219C199.51 219 190.99 242.93 190.84 253C190.54 272.54 196.03 291.83 195.4 307.33L193.96 355.13" fill="#263238"/>
<path d="M192.51 276.6C192.735 276.795 192.972 276.976 193.22 277.14L193.61 277.41L194.03 277.82C194.4 278.14 194.736 278.499 195.03 278.89C196.42 280.59 197.43 283.64 198.4 287.43C198.896 289.532 199.627 291.572 200.58 293.51C200.87 294.041 201.204 294.546 201.58 295.02C201.76 295.26 201.93 295.52 202.14 295.75L202.8 296.41C203.746 297.293 204.843 297.998 206.04 298.49C208.45 299.55 211.18 300.05 213.66 301.3C216.201 302.667 218.164 304.904 219.19 307.6C220.41 310.31 221.19 313.15 222.19 315.81C223.19 318.47 224.54 321.01 226.69 322.63C228.746 324.059 231.187 324.829 233.69 324.84C236.01 324.98 238.16 324.91 240.09 325.2C241.827 325.38 243.488 326.007 244.91 327.02C245.949 327.832 246.728 328.931 247.15 330.18C247.418 330.968 247.477 331.813 247.32 332.63C247.2 333.19 247.05 333.46 247.08 333.47C247.241 333.219 247.356 332.941 247.42 332.65C247.631 331.816 247.603 330.939 247.34 330.12C246.943 328.809 246.158 327.648 245.09 326.79C243.631 325.69 241.905 324.999 240.09 324.79C238.09 324.47 235.96 324.51 233.67 324.36C231.24 324.344 228.872 323.591 226.88 322.2C224.859 320.434 223.367 318.143 222.57 315.58C221.57 312.95 220.84 310.1 219.57 307.34C218.494 304.533 216.442 302.207 213.79 300.79C211.21 299.51 208.48 299.02 206.13 298C204.98 297.524 203.923 296.847 203.01 296L202.38 295.37C202.18 295.15 202.01 294.9 201.83 294.67C201.477 294.215 201.166 293.73 200.9 293.22C199.942 291.309 199.201 289.296 198.69 287.22C197.69 283.44 196.6 280.35 195.13 278.64C194.837 278.25 194.502 277.895 194.13 277.58C193.97 277.44 193.83 277.3 193.69 277.19L193.28 276.93C193.03 276.805 192.773 276.694 192.51 276.6Z" fill="#E0E0E0"/>
<path d="M192.25 247.06C192.204 247.341 192.184 247.625 192.19 247.91C192.193 248.736 192.294 249.558 192.49 250.36C193.351 253.285 195.043 255.898 197.36 257.88C198.889 259.286 200.566 260.523 202.36 261.57C204.29 262.71 206.42 263.8 208.61 265.04C210.91 266.273 213.053 267.781 214.99 269.53C216.977 271.502 218.614 273.798 219.83 276.32C221.056 278.876 222.456 281.345 224.02 283.71C224.815 284.812 225.734 285.819 226.76 286.71C227.771 287.57 228.883 288.306 230.07 288.9C232.218 289.956 234.457 290.816 236.76 291.47C238.9 292.13 240.9 292.72 242.64 293.47C244.219 294.098 245.722 294.903 247.12 295.87C248.172 296.6 249.117 297.471 249.93 298.46C250.61 299.318 251.178 300.259 251.62 301.26C251.549 300.983 251.455 300.712 251.34 300.45C251.012 299.695 250.592 298.983 250.09 298.33C249.292 297.299 248.349 296.39 247.29 295.63C245.886 294.629 244.373 293.79 242.78 293.13C240.854 292.345 238.888 291.661 236.89 291.08C234.62 290.41 232.412 289.547 230.29 288.5C229.164 287.913 228.108 287.202 227.14 286.38C226.153 285.501 225.268 284.515 224.5 283.44C222.958 281.087 221.571 278.635 220.35 276.1C219.095 273.522 217.404 271.181 215.35 269.18C213.378 267.405 211.195 265.88 208.85 264.64C206.65 263.41 204.52 262.34 202.59 261.21C200.801 260.198 199.124 258.998 197.59 257.63C195.292 255.707 193.587 253.173 192.67 250.32C192.413 249.252 192.272 248.159 192.25 247.06Z" fill="#E0E0E0"/>
<path d="M252.98 271C253.02 270.938 253.05 270.871 253.07 270.8C253.145 270.607 253.208 270.41 253.26 270.21C253.432 269.414 253.397 268.588 253.16 267.81C252.6 265.81 250.39 263.24 246.83 261.97C245.05 261.36 243.04 260.97 240.94 260.45C239.196 260.161 237.547 259.459 236.129 258.403C234.711 257.347 233.566 255.968 232.79 254.38C232.221 253.214 231.724 252.016 231.3 250.79C230.518 248.128 229.456 245.557 228.13 243.12C226.611 240.724 224.306 238.932 221.61 238.05C219.157 237.254 216.655 236.619 214.12 236.15C211.858 235.715 209.667 234.968 207.61 233.93C205.868 232.935 204.366 231.569 203.21 229.93C201.503 227.563 200.529 224.746 200.41 221.83C200.406 220.76 200.476 219.69 200.62 218.63C200.318 219.669 200.18 220.748 200.21 221.83C200.249 224.809 201.19 227.707 202.91 230.14C204.081 231.833 205.615 233.244 207.4 234.27C209.484 235.347 211.709 236.125 214.01 236.58C216.522 237.057 219 237.695 221.43 238.49C224.018 239.338 226.232 241.06 227.69 243.36C228.994 245.764 230.043 248.298 230.82 250.92C231.252 252.168 231.763 253.387 232.35 254.57C232.942 255.706 233.697 256.751 234.59 257.67C236.346 259.272 238.508 260.361 240.84 260.82C242.96 261.36 244.96 261.7 246.71 262.28C250.18 263.46 252.38 265.89 252.97 267.83C253.212 268.578 253.278 269.372 253.16 270.15C253.076 270.427 253.015 270.712 252.98 271Z" fill="#E0E0E0"/>
<path d="M195.95 325C195.909 325.208 195.886 325.418 195.88 325.63C195.861 326.236 195.925 326.841 196.07 327.43C196.698 329.598 198.028 331.497 199.85 332.83C201.067 333.799 202.413 334.594 203.85 335.19C205.38 335.84 207.07 336.36 208.85 336.91C210.698 337.45 212.506 338.118 214.26 338.91C216.083 339.781 217.717 341 219.07 342.5C220.53 344.02 221.79 345.69 223.19 347.17C224.529 348.604 226.085 349.818 227.8 350.77C230.719 352.363 233.985 353.214 237.31 353.25C239.537 353.274 241.751 352.905 243.85 352.16C244.42 351.964 244.975 351.726 245.51 351.45C245.705 351.369 245.89 351.265 246.06 351.14C245.858 351.195 245.661 351.266 245.47 351.35C244.921 351.585 244.36 351.792 243.79 351.97C241.695 352.627 239.505 352.934 237.31 352.88C234.058 352.796 230.875 351.928 228.03 350.35C226.368 349.409 224.861 348.218 223.56 346.82C222.19 345.36 220.94 343.7 219.45 342.14C218.017 340.584 216.291 339.327 214.37 338.44C212.589 337.645 210.755 336.977 208.88 336.44C207.12 335.9 205.44 335.44 203.88 334.78C202.485 334.209 201.173 333.452 199.98 332.53C198.188 331.264 196.852 329.455 196.17 327.37C196.023 326.589 195.949 325.795 195.95 325Z" fill="#E0E0E0"/>
<path d="M200.86 192.46L209.2 192.66C209.521 194.342 210.159 195.947 211.08 197.39C218.08 185.29 223.45 169.09 224.79 162.58C224.59 161.93 224.36 161.21 224.07 160.41C223.862 159.195 223.9 157.95 224.18 156.75C224.42 155.3 224.82 153.35 224.94 152.45C225.31 149.69 225.76 149.26 226.72 149.57C228.02 150 226.18 157.3 227.25 157.46C227.83 157.54 228.53 155.04 228.73 152.99C228.93 150.94 229.87 144.62 230.54 144.2C231.54 143.58 232.41 144.56 232.15 146.6C231.89 148.64 231.58 154.84 232.66 154.93C233.74 155.02 234.66 144.54 234.66 144.54C234.66 144.54 234.49 142.26 235.75 142.31C238.01 142.41 236.24 153.45 236.05 154.5C235.91 155.22 237.05 155.36 237.19 154.57C237.33 153.78 237.85 144.1 240.19 144.18C241.97 144.18 238.82 153.27 239.82 155.37C240.82 157.47 241.5 148.25 243.19 148.37C243.82 148.42 244.29 148.54 243.13 153.75C242.019 157.889 240.684 161.965 239.13 165.96C236.45 180.41 224.69 226.64 206.26 218.18C195.94 213.44 191.76 192.46 191.76 192.46H200.86Z" fill="#E69C7F"/>
<path d="M236.41 155.2C236.331 155.22 236.249 155.22 236.17 155.2C236.049 155.163 235.946 155.084 235.878 154.978C235.81 154.872 235.783 154.745 235.8 154.62C235.8 154 235.92 153.1 236.06 151.93C236.294 150.52 236.448 149.097 236.52 147.67C236.52 146.83 236.52 145.93 236.47 144.98C236.455 144.497 236.405 144.016 236.32 143.54C236.24 143.09 235.94 142.54 235.59 142.63H235.53C235.18 142.63 234.9 142.89 234.79 143.31C234.666 143.745 234.619 144.198 234.65 144.65C234.444 147.45 234.087 150.238 233.58 153C233.5 153.37 233.42 153.75 233.3 154.13C233.247 154.324 233.18 154.515 233.1 154.7C233.049 154.803 232.992 154.903 232.93 155C232.885 155.073 232.824 155.135 232.751 155.18C232.678 155.225 232.595 155.252 232.51 155.26C232.364 155.244 232.227 155.185 232.115 155.091C232.002 154.996 231.921 154.871 231.88 154.73C231.794 154.534 231.73 154.33 231.69 154.12C231.612 153.717 231.559 153.309 231.53 152.9C231.439 151.234 231.462 149.563 231.6 147.9C231.727 147.07 231.76 146.228 231.7 145.39C231.664 145.028 231.488 144.694 231.21 144.46C231.146 144.422 231.074 144.398 231 144.389C230.926 144.38 230.851 144.388 230.78 144.41C230.695 144.43 230.614 144.464 230.54 144.51C230.489 144.548 230.451 144.6 230.43 144.66C230.115 145.471 229.884 146.312 229.74 147.17C229.56 148.05 229.41 148.96 229.27 149.87C229.13 150.78 229 151.7 228.89 152.63C228.804 153.59 228.651 154.542 228.43 155.48C228.312 155.959 228.161 156.431 227.98 156.89C227.878 157.147 227.736 157.387 227.56 157.6C227.492 157.689 227.401 157.756 227.297 157.795C227.192 157.834 227.079 157.843 226.97 157.82C226.869 157.786 226.778 157.728 226.706 157.649C226.634 157.57 226.584 157.474 226.56 157.37C226.442 156.859 226.405 156.332 226.45 155.81C226.45 155.31 226.51 154.81 226.56 154.33C226.63 153.49 226.71 152.66 226.74 151.84C226.765 151.437 226.765 151.033 226.74 150.63C226.72 150.452 226.676 150.277 226.61 150.11C226.589 150.055 226.559 150.004 226.52 149.96H226.39C225.73 149.69 225.51 150.61 225.33 151.35C225.15 152.09 225.08 152.93 224.92 153.72C224.66 155.29 224.32 156.86 224.15 158.36C224.034 159.078 224.061 159.812 224.23 160.52C224.47 161.24 224.71 161.95 224.94 162.66V162.73V162.79C223.769 167.703 222.275 172.533 220.47 177.25C218.89 181.52 217.3 185.25 215.91 188.25C214.52 191.25 213.26 193.6 212.4 195.18L211.4 196.97C211.292 197.183 211.161 197.384 211.01 197.57C211.094 197.348 211.198 197.134 211.32 196.93L212.32 195.1C213.14 193.49 214.32 191.1 215.68 188.1C217.04 185.1 218.58 181.37 220.12 177.1C221.882 172.39 223.345 167.574 224.5 162.68V162.82C224.27 162.12 224.04 161.41 223.8 160.7C223.592 159.921 223.551 159.106 223.68 158.31C223.86 156.74 224.19 155.22 224.45 153.64C224.6 152.86 224.7 152.06 224.86 151.24C224.87 150.819 224.941 150.401 225.07 150C225.184 149.756 225.378 149.558 225.62 149.44C225.877 149.356 226.153 149.356 226.41 149.44H226.57C226.655 149.467 226.733 149.511 226.8 149.57C226.911 149.664 226.997 149.784 227.05 149.92C227.142 150.136 227.199 150.366 227.22 150.6C227.25 151.033 227.25 151.467 227.22 151.9C227.22 152.74 227.1 153.58 227.03 154.42C227.03 154.91 226.95 155.42 226.93 155.87C226.89 156.321 226.914 156.775 227 157.22C227 157.32 227.08 157.3 227 157.35L227.06 157.29C227.187 157.127 227.289 156.944 227.36 156.75C227.535 156.317 227.678 155.873 227.79 155.42C228.01 154.509 228.16 153.583 228.24 152.65C228.347 151.71 228.477 150.78 228.63 149.86C228.77 148.94 228.93 148.04 229.11 147.14C229.261 146.224 229.516 145.328 229.87 144.47C229.939 144.327 230.046 144.205 230.18 144.12C230.297 144.052 230.421 143.999 230.55 143.96C230.693 143.922 230.841 143.914 230.987 143.934C231.133 143.955 231.273 144.004 231.4 144.08C231.606 144.234 231.778 144.429 231.906 144.653C232.033 144.876 232.113 145.124 232.14 145.38C232.205 145.834 232.205 146.296 232.14 146.75C232.14 147.18 232.04 147.6 232.01 148.02C231.871 149.656 231.841 151.3 231.92 152.94C231.943 153.33 231.994 153.717 232.07 154.1C232.099 154.279 232.149 154.453 232.22 154.62C232.246 154.686 232.283 154.747 232.33 154.8C232.33 154.89 232.4 154.8 232.39 154.92C232.39 154.82 232.39 154.92 232.39 154.79C232.434 154.722 232.474 154.652 232.51 154.58C232.58 154.42 232.64 154.24 232.7 154.07C232.81 153.71 232.89 153.34 232.97 152.98C233.492 150.242 233.869 147.478 234.1 144.7C234.07 144.197 234.128 143.693 234.27 143.21C234.336 142.958 234.471 142.729 234.66 142.55C234.758 142.455 234.874 142.382 235.001 142.334C235.128 142.285 235.264 142.264 235.4 142.27H235.34C235.509 142.245 235.682 142.271 235.837 142.344C235.992 142.417 236.121 142.534 236.21 142.68C236.359 142.918 236.461 143.183 236.51 143.46C236.594 143.956 236.641 144.457 236.65 144.96C236.65 145.96 236.65 146.83 236.65 147.68C236.555 149.117 236.372 150.546 236.1 151.96C235.93 153.12 235.8 154.02 235.74 154.63C235.721 154.737 235.739 154.847 235.792 154.942C235.845 155.036 235.929 155.11 236.03 155.15C236.33 155.18 236.42 155.19 236.41 155.2Z" fill="#B9745E"/>
<path d="M301.54 206.23C303.492 206.188 305.44 206.414 307.33 206.9C312.5 208.26 321.41 213.66 321.78 220.33H315.3C315.3 220.33 318.93 228.05 317.87 227.33C315.1 225.47 309.6 219.88 309.6 219.88L301.54 206.23Z" fill="#E69C7F"/>
<path d="M213.21 90C213.36 90 213.94 84.66 214.52 78C215.1 71.34 215.46 66 215.32 66C215.18 66 214.59 71.34 214.01 78C213.43 84.66 213.07 90 213.21 90Z" fill="#263238"/>
<path d="M184.8 66.4099C184.69 66.4899 189.06 72.8399 194.57 80.5899C200.08 88.3399 204.65 94.5899 204.77 94.4699C204.89 94.3499 200.51 88.0399 195 80.2899C189.49 72.5399 184.92 66.3299 184.8 66.4099Z" fill="#263238"/>
<path d="M173 95.1901C173 95.3301 178.08 96.5001 184.4 97.8001C190.72 99.1001 195.88 100.04 195.91 99.9001C195.94 99.7601 190.84 98.5901 184.51 97.2901C178.18 95.9901 173.07 95.0501 173 95.1901Z" fill="#263238"/>
<path d="M299 234.54L263.6 416.34L259 440.14L495 439C505.6 438.95 515 429.54 518.39 415.56L560.25 243.93C562.84 233.32 557.16 222.28 549.12 222.29L310.2 222.54C305 222.53 300.34 227.45 299 234.54Z" fill="#FF553D"/>
<g opacity="0.5">
<path d="M299 234.54L263.6 416.34L259 440.14L495 439C505.6 438.95 515 429.54 518.39 415.56L560.25 243.93C562.84 233.32 557.16 222.28 549.12 222.29L310.2 222.54C305 222.53 300.34 227.45 299 234.54Z" fill="black"/>
</g>
<path d="M472.39 404L447.39 202.59C446.39 194.34 439.8 188.18 432.03 188.21L377.23 188.38C375.194 188.403 373.183 188.84 371.321 189.666C369.459 190.491 367.785 191.687 366.4 193.18L340.4 220.85L188 221.67C178.69 221.72 171.53 230.54 172.76 240.44L195.97 426.59C196.97 434.83 203.56 440.98 211.31 440.97L476.96 440.44C506.54 441.05 509.37 432.32 509.37 432.32C475.41 439.83 472.39 404.05 472.39 404Z" fill="#FF553D"/>
<g opacity="0.5">
<path d="M357.84 363.72L348.88 373.34L279.88 311.26L288.84 301.64L357.84 363.72Z" fill="white"/>
<path d="M345.13 299.51L355.03 308.42L292.6 375.47L282.69 366.56L345.13 299.51Z" fill="white"/>
</g>
<path d="M510.32 103.78C509.996 103.644 509.718 103.418 509.518 103.129C509.318 102.841 509.204 102.501 509.19 102.15L508.79 92.8699C508.776 92.5816 508.829 92.2939 508.945 92.0297C509.062 91.7654 509.238 91.5319 509.46 91.3476C509.682 91.1632 509.944 91.0331 510.226 90.9676C510.507 90.902 510.799 90.9029 511.08 90.9699C511.854 91.137 512.655 91.1442 513.432 90.9912C514.209 90.8382 514.947 90.5281 515.6 90.0799C516.201 89.6993 516.718 89.1994 517.119 88.6112C517.52 88.023 517.796 87.3589 517.93 86.6599C518.021 85.9522 517.968 85.2334 517.776 84.5463C517.583 83.8592 517.255 83.2178 516.81 82.6599C516.341 82.0253 515.752 81.4892 515.076 81.0826C514.4 80.6759 513.65 80.4065 512.87 80.2899C511.297 80.2025 509.74 80.6485 508.451 81.5559C507.163 82.4633 506.218 83.779 505.77 85.2899C505.621 85.7478 505.3 86.1303 504.876 86.3579C504.452 86.5855 503.956 86.6406 503.492 86.5117C503.028 86.3828 502.631 86.0799 502.385 85.666C502.139 85.2521 502.062 84.7592 502.17 84.2899C502.85 81.9134 504.328 79.8435 506.355 78.4285C508.382 77.0134 510.835 76.3395 513.3 76.5199C514.583 76.6909 515.819 77.118 516.934 77.776C518.049 78.4339 519.02 79.3092 519.79 80.3499C520.539 81.3145 521.087 82.4195 521.401 83.5995C521.716 84.7795 521.79 86.0106 521.62 87.2199C521.393 88.4275 520.921 89.5757 520.233 90.5939C519.545 91.612 518.656 92.4785 517.62 93.1399C516.12 94.15 514.367 94.7214 512.56 94.7899L512.87 101.95C512.882 102.265 512.814 102.577 512.672 102.858C512.531 103.14 512.321 103.381 512.062 103.559C511.802 103.738 511.502 103.848 511.189 103.879C510.876 103.911 510.56 103.863 510.27 103.74L510.32 103.78Z" fill="#FF553D"/>
<path d="M513.06 107.58C513.081 107.882 513.012 108.183 512.862 108.446C512.712 108.709 512.487 108.921 512.216 109.056C511.945 109.191 511.64 109.243 511.339 109.204C511.039 109.166 510.757 109.039 510.529 108.84C510.301 108.641 510.136 108.379 510.057 108.087C509.978 107.795 509.987 107.486 510.084 107.199C510.18 106.912 510.36 106.66 510.599 106.475C510.839 106.29 511.128 106.18 511.43 106.16C511.631 106.145 511.832 106.17 512.023 106.233C512.214 106.297 512.39 106.398 512.542 106.53C512.693 106.662 512.817 106.823 512.906 107.003C512.995 107.183 513.047 107.379 513.06 107.58Z" fill="#FF553D"/>
<path d="M478.19 90.69C478.233 90.4921 478.263 90.2917 478.28 90.09C478.28 89.65 478.39 89.09 478.47 88.3C478.568 87.33 478.732 86.3679 478.96 85.42C479.09 84.86 479.16 84.24 479.36 83.61C479.56 82.98 479.76 82.3 479.98 81.61C481.138 78.1912 482.825 74.9754 484.98 72.08C487.804 68.3306 491.385 65.2166 495.49 62.94C497.827 61.6226 500.315 60.595 502.9 59.88C505.69 59.1404 508.564 58.764 511.45 58.76C512.97 58.7356 514.491 58.8157 516 59C516.77 59.08 517.53 59.28 518.3 59.41C519.079 59.5433 519.847 59.7305 520.6 59.97C523.752 60.8508 526.75 62.2099 529.49 64C535.582 67.9512 540.223 73.7781 542.71 80.6C544.05 84.2542 544.727 88.118 544.71 92.01C544.751 96.0194 544.042 100.001 542.62 103.75L542.17 104.89L542.11 105.04L542.17 105.19C544.68 110.96 547.17 116.63 549.52 122.12L549.94 121.64L534.94 115.89L534.76 115.82L534.61 115.96C530.642 119.805 525.784 122.608 520.47 124.12C515.929 125.37 511.175 125.643 506.521 124.921C501.867 124.199 497.419 122.497 493.47 119.93C490.236 117.809 487.386 115.155 485.04 112.08C481.641 107.592 479.439 102.313 478.64 96.74C478.52 95.74 478.42 94.9 478.33 94.14C478.24 93.38 478.33 92.76 478.28 92.23C478.23 91.7 478.28 91.35 478.28 91.06C478.33 91.0524 478.375 91.0263 478.407 90.9868C478.438 90.9474 478.453 90.8975 478.449 90.8472C478.446 90.7969 478.423 90.7499 478.386 90.7156C478.349 90.6813 478.3 90.6622 478.25 90.6622C478.2 90.6622 478.151 90.6813 478.114 90.7156C478.077 90.7499 478.054 90.7969 478.051 90.8472C478.047 90.8975 478.062 90.9474 478.094 90.9868C478.125 91.0263 478.17 91.0524 478.22 91.06C478.22 91.35 478.22 91.74 478.22 92.23C478.22 92.72 478.22 93.4 478.22 94.16C478.22 94.92 478.39 95.79 478.49 96.78C478.819 99.1852 479.392 101.551 480.2 103.84C481.345 106.863 482.885 109.721 484.78 112.34C487.135 115.47 490.006 118.175 493.27 120.34C497.267 122.972 501.778 124.723 506.504 125.478C511.23 126.233 516.062 125.975 520.68 124.72C526.058 123.192 530.977 120.362 535 116.48L534.67 116.55L549.67 122.33L550.42 122.62L550.09 121.85C547.71 116.36 545.25 110.7 542.75 104.92V105.21L543.21 104.04C544.669 100.209 545.395 96.1387 545.35 92.04C545.381 88.0653 544.704 84.1169 543.35 80.38C540.809 73.4221 536.065 67.4845 529.84 63.47C527.031 61.6382 523.954 60.2549 520.72 59.37C519.955 59.1278 519.173 58.944 518.38 58.82C517.6 58.68 516.83 58.48 516.05 58.41C514.521 58.2201 512.981 58.1333 511.44 58.15C508.508 58.1624 505.589 58.5591 502.76 59.33C500.141 60.0738 497.619 61.128 495.25 62.47C491.104 64.8025 487.501 67.9896 484.68 71.82C482.531 74.7634 480.867 78.0313 479.75 81.5C479.54 82.22 479.34 82.91 479.16 83.5C479.001 84.1028 478.874 84.7137 478.78 85.33C478.566 86.2844 478.425 87.2539 478.36 88.23C478.3 89 478.26 89.59 478.23 90.03C478.188 90.2473 478.175 90.4692 478.19 90.69Z" fill="#014FC1"/>
<path d="M136.27 111.632C135.946 111.496 135.668 111.27 135.468 110.981C135.268 110.693 135.154 110.353 135.14 110.002L134.74 100.722C134.726 100.434 134.779 100.146 134.895 99.8817C135.012 99.6175 135.188 99.384 135.41 99.1996C135.632 99.0153 135.894 98.8852 136.176 98.8196C136.457 98.7541 136.749 98.7549 137.03 98.822C137.804 98.989 138.605 98.9963 139.382 98.8432C140.159 98.6902 140.897 98.3801 141.55 97.932C142.151 97.5513 142.668 97.0515 143.069 96.4632C143.47 95.875 143.746 95.211 143.88 94.512C143.971 93.8042 143.918 93.0855 143.726 92.3984C143.533 91.7113 143.205 91.0698 142.76 90.512C142.291 89.8773 141.702 89.3413 141.026 88.9346C140.35 88.5279 139.6 88.2586 138.82 88.142C137.246 88.0545 135.689 88.5006 134.401 89.408C133.112 90.3154 132.168 91.631 131.72 93.142C131.571 93.5998 131.25 93.9824 130.826 94.2099C130.402 94.4375 129.906 94.4926 129.442 94.3637C128.978 94.2348 128.581 93.9319 128.335 93.518C128.089 93.1042 128.012 92.6113 128.12 92.142C128.8 89.7654 130.278 87.6956 132.305 86.2805C134.332 84.8655 136.785 84.1915 139.25 84.372C140.533 84.5429 141.769 84.9701 142.884 85.628C143.999 86.286 144.97 87.1613 145.74 88.202C146.489 89.1665 147.037 90.2715 147.351 91.4515C147.666 92.6316 147.74 93.8627 147.57 95.072C147.343 96.2795 146.871 97.4278 146.183 98.4459C145.495 99.4641 144.606 100.331 143.57 100.992C142.07 102.002 140.317 102.573 138.51 102.642L138.82 109.802C138.832 110.117 138.764 110.429 138.622 110.71C138.481 110.992 138.271 111.233 138.012 111.411C137.752 111.59 137.452 111.7 137.139 111.731C136.826 111.763 136.51 111.715 136.22 111.592L136.27 111.632Z" fill="#D94A35"/>
<path d="M139.01 115.432C139.031 115.734 138.962 116.035 138.812 116.298C138.661 116.561 138.437 116.773 138.166 116.908C137.895 117.043 137.59 117.095 137.289 117.056C136.989 117.018 136.707 116.891 136.479 116.692C136.25 116.493 136.086 116.231 136.007 115.939C135.928 115.647 135.937 115.338 136.034 115.051C136.13 114.764 136.309 114.512 136.549 114.327C136.789 114.142 137.078 114.033 137.38 114.012C137.581 113.997 137.782 114.022 137.973 114.086C138.164 114.149 138.34 114.25 138.491 114.382C138.643 114.514 138.767 114.675 138.856 114.855C138.945 115.035 138.997 115.231 139.01 115.432Z" fill="#D94A35"/>
<path d="M104.14 98.542C104.183 98.3442 104.213 98.1438 104.23 97.942C104.23 97.502 104.34 96.942 104.42 96.152C104.518 95.1821 104.682 94.2199 104.91 93.272C105.04 92.712 105.11 92.092 105.31 91.462C105.51 90.832 105.71 90.152 105.93 89.462C107.088 86.0433 108.775 82.8275 110.93 79.932C113.754 76.1827 117.335 73.0687 121.44 70.792C123.776 69.4747 126.265 68.4471 128.85 67.732C131.64 66.9925 134.514 66.616 137.4 66.612C138.92 66.5876 140.441 66.6678 141.95 66.852C142.72 66.932 143.48 67.132 144.25 67.262C145.029 67.3954 145.797 67.5825 146.55 67.822C149.702 68.7028 152.7 70.062 155.44 71.852C161.532 75.8033 166.173 81.6301 168.66 88.452C170 92.1062 170.677 95.97 170.66 99.862C170.701 103.871 169.992 107.853 168.57 111.602L168.12 112.742L168.06 112.892L168.12 113.042C170.63 118.812 173.12 124.482 175.47 129.972L175.89 129.492L160.89 123.742L160.71 123.672L160.56 123.812C156.592 127.657 151.734 130.46 146.42 131.972C141.879 133.222 137.125 133.495 132.471 132.773C127.817 132.051 123.368 130.35 119.42 127.782C116.186 125.661 113.336 123.007 110.99 119.932C107.591 115.444 105.389 110.165 104.59 104.592C104.47 103.592 104.37 102.752 104.28 101.992C104.19 101.232 104.28 100.612 104.23 100.082C104.18 99.552 104.23 99.202 104.23 98.912C104.28 98.9045 104.325 98.8783 104.356 98.8389C104.388 98.7994 104.403 98.7495 104.399 98.6992C104.396 98.6489 104.373 98.6019 104.336 98.5676C104.299 98.5333 104.25 98.5143 104.2 98.5143C104.15 98.5143 104.101 98.5333 104.064 98.5676C104.027 98.6019 104.004 98.6489 104.001 98.6992C103.997 98.7495 104.012 98.7994 104.044 98.8389C104.075 98.8783 104.12 98.9045 104.17 98.912C104.17 99.202 104.17 99.592 104.17 100.082C104.17 100.572 104.17 101.252 104.17 102.012C104.17 102.772 104.34 103.642 104.44 104.632C104.769 107.037 105.342 109.403 106.15 111.692C107.295 114.715 108.835 117.573 110.73 120.192C113.085 123.322 115.956 126.027 119.22 128.192C123.217 130.824 127.728 132.575 132.454 133.33C137.18 134.086 142.012 133.827 146.63 132.572C152.008 131.045 156.927 128.214 160.95 124.332L160.62 124.402L175.62 130.182L176.37 130.472L176.04 129.702C173.66 124.212 171.2 118.552 168.7 112.772V113.062L169.16 111.892C170.619 108.062 171.345 103.991 171.3 99.892C171.331 95.9174 170.654 91.969 169.3 88.232C166.759 81.2742 162.015 75.3365 155.79 71.322C152.981 69.4902 149.904 68.107 146.67 67.222C145.905 66.9799 145.123 66.796 144.33 66.672C143.55 66.532 142.78 66.332 142 66.262C140.471 66.0722 138.931 65.9853 137.39 66.002C134.458 66.0144 131.539 66.4111 128.71 67.182C126.091 67.9259 123.569 68.98 121.2 70.322C117.054 72.6546 113.451 75.8416 110.63 79.672C108.481 82.6154 106.817 85.8833 105.7 89.352C105.49 90.072 105.29 90.762 105.11 91.352C104.951 91.9549 104.824 92.5657 104.73 93.182C104.516 94.1364 104.375 95.106 104.31 96.082C104.25 96.852 104.21 97.442 104.18 97.882C104.138 98.0993 104.125 98.3212 104.14 98.542Z" fill="#FFD767"/>
</svg>
